<svg width="443" height="432" viewBox="0 0 443 432" fill="none" xmlns="http://www.w3.org/2000/svg">
<path d="M211.372 24.0401L208.926 21.6251V20.2765H212.909C213.724 20.2765 214.362 20.0151 214.822 19.4924C215.303 18.9488 215.543 18.2588 215.543 17.4224C215.543 16.837 215.418 16.3456 215.167 15.9484C214.916 15.5302 214.55 15.2061 214.069 14.9761C213.609 14.7461 213.045 14.6311 212.376 14.6311H207.107V10.1148H223.666V13.9097H216.735L214.101 11.4007C215.292 11.6098 216.4 11.9548 217.425 12.4357C218.45 12.9166 219.265 13.5543 219.871 14.3488C220.499 15.1434 220.812 16.1261 220.812 17.297C220.812 18.2588 220.624 19.1474 220.248 19.9628C219.871 20.7783 219.338 21.4892 218.648 22.0955C217.979 22.7019 217.185 23.1828 216.265 23.5382C215.365 23.8728 214.383 24.0401 213.316 24.0401H211.372ZM215.825 32.069L209.02 21.6565L214.508 20.8724L221.91 32.1004L215.825 32.069ZM211.654 18.5829V16.2306H223.729V18.5829H211.654ZM233.221 32.1945C231.527 32.1945 230.053 31.8286 228.798 31.0968C227.544 30.365 226.373 29.1104 225.286 27.3332L228.767 25.1691C229.227 25.9009 229.708 26.4968 230.21 26.9568C230.711 27.3959 231.224 27.72 231.746 27.9291C232.29 28.1382 232.855 28.2427 233.44 28.2427C234.067 28.2427 234.642 28.0964 235.165 27.8036C235.709 27.5109 236.137 27.1032 236.451 26.5805C236.785 26.0368 236.953 25.42 236.953 24.73C236.953 24.0401 236.817 23.4546 236.545 22.9737C236.273 22.4928 235.886 22.1269 235.385 21.876C234.883 21.6251 234.266 21.4996 233.534 21.4996C233.221 21.4996 232.876 21.5415 232.499 21.6251C232.144 21.6878 231.757 21.7819 231.339 21.9074C230.921 22.0328 230.492 22.1896 230.053 22.3778L228.955 19.461L234.726 13.1257L235.918 13.9725L226.728 13.8784V9.80117H239.901L240.779 11.5261L233.566 19.3356L232.499 18.0811C232.666 18.0183 232.938 17.9556 233.315 17.8929C233.691 17.8092 234.036 17.7674 234.35 17.7674C235.291 17.7674 236.179 17.9451 237.015 18.3006C237.852 18.6351 238.594 19.116 239.242 19.7433C239.89 20.3706 240.392 21.1024 240.748 21.9387C241.124 22.7751 241.312 23.6742 241.312 24.636C241.312 26.0787 240.946 27.375 240.215 28.525C239.504 29.6541 238.531 30.5532 237.298 31.2222C236.085 31.8704 234.726 32.1945 233.221 32.1945ZM244.741 31.8809L243.675 29.2777L250.104 22.0955C250.481 21.7192 250.868 21.2801 251.265 20.7783C251.683 20.2765 252.08 19.7642 252.457 19.2415C252.833 18.6979 253.136 18.1751 253.366 17.6733C253.596 17.1715 253.711 16.7115 253.711 16.2933C253.711 15.7915 253.607 15.3629 253.398 15.0075C253.209 14.6311 252.917 14.3488 252.519 14.1607C252.122 13.9516 251.631 13.847 251.045 13.847C250.523 13.847 250.021 13.9934 249.54 14.2861C249.059 14.5579 248.61 14.9656 248.191 15.5093C247.773 16.0529 247.407 16.722 247.094 17.5165L243.581 15.5093C243.999 14.2966 244.595 13.2407 245.369 12.3416C246.142 11.4216 247.062 10.7107 248.129 10.2089C249.195 9.70708 250.334 9.46663 251.547 9.48753C252.823 9.48753 253.962 9.75935 254.966 10.303C255.99 10.8257 256.795 11.5575 257.381 12.4984C257.966 13.4393 258.259 14.5266 258.259 15.7602C258.259 16.3456 258.175 16.952 258.008 17.5792C257.862 18.1856 257.611 18.8338 257.255 19.5238C256.9 20.1928 256.44 20.9142 255.875 21.6878C255.311 22.4614 254.631 23.2873 253.837 24.1655L248.913 29.5286L248.285 27.6468H259.137V31.8809H244.741ZM263.523 32.2259C262.729 32.2259 262.112 31.9959 261.673 31.5359C261.234 31.0759 261.014 30.4172 261.014 29.56C261.014 28.7654 261.244 28.1173 261.704 27.6155C262.164 27.1137 262.771 26.8627 263.523 26.8627C264.339 26.8627 264.966 27.1032 265.405 27.5841C265.844 28.0441 266.064 28.7027 266.064 29.56C266.064 30.3545 265.823 31.0027 265.342 31.5045C264.882 31.9854 264.276 32.2259 263.523 32.2259ZM277.564 31.8809V14.2234L279.665 14.3488L272.075 23.601L271.574 22.8483H285.75V26.8314H269.253L267.34 23.1305L278.317 9.80117H282.08V31.8809H277.564ZM299.365 31.8809V9.92662H304.07V27.6468H314.012V31.8809H299.365ZM326.335 31.8809V21.4996C326.335 20.6215 326.063 19.9524 325.52 19.4924C324.997 19.0115 324.286 18.771 323.387 18.771C322.53 18.771 321.766 18.9383 321.097 19.2729C320.428 19.6074 319.801 20.1301 319.215 20.841L316.487 18.2065C317.491 17.1611 318.609 16.3561 319.843 15.7915C321.097 15.227 322.456 14.9447 323.92 14.9447C325.258 14.9447 326.419 15.1538 327.401 15.572C328.405 15.9902 329.179 16.6174 329.722 17.4538C330.266 18.2901 330.538 19.346 330.538 20.6215V31.8809H326.335ZM321.787 32.1945C320.742 32.1945 319.79 31.9854 318.933 31.5672C318.097 31.1491 317.428 30.5741 316.926 29.8423C316.445 29.0895 316.205 28.2114 316.205 27.2077C316.205 26.3505 316.361 25.5978 316.675 24.9496C316.989 24.2805 317.449 23.7369 318.055 23.3187C318.682 22.8796 319.456 22.5451 320.376 22.3151C321.317 22.0851 322.404 21.9701 323.638 21.9701H328.53L328.248 24.9496H323.575C323.073 24.9496 322.624 24.9914 322.226 25.075C321.85 25.1587 321.526 25.2946 321.254 25.4828C321.003 25.6709 320.805 25.8905 320.658 26.1414C320.533 26.3923 320.47 26.685 320.47 27.0196C320.47 27.375 320.564 27.6886 320.752 27.9605C320.94 28.2323 321.191 28.4414 321.505 28.5877C321.84 28.7341 322.216 28.8073 322.634 28.8073C323.24 28.8073 323.815 28.7027 324.359 28.4936C324.924 28.2845 325.425 27.9918 325.864 27.6155C326.304 27.2391 326.649 26.8105 326.899 26.3296L327.746 28.5564C327.307 29.2673 326.774 29.8945 326.147 30.4382C325.52 30.9818 324.84 31.4104 324.108 31.724C323.376 32.0377 322.603 32.1945 321.787 32.1945ZM338.745 26.8941L337.522 23.1933L345.3 15.2897H351.165L338.745 26.8941ZM334.542 31.8809V8.67209H338.996V31.8809H334.542ZM345.77 31.8809L339.811 24.4478L342.979 21.9074L351.133 31.8809H345.77ZM353.44 31.8809V8.67209H357.862V18.677L356.984 19.0533C357.193 18.3006 357.601 17.6211 358.207 17.0147C358.813 16.3874 359.535 15.8856 360.371 15.5093C361.207 15.1329 362.075 14.9447 362.974 14.9447C364.229 14.9447 365.274 15.1956 366.111 15.6974C366.968 16.1993 367.606 16.9624 368.024 17.987C368.463 18.9906 368.682 20.2451 368.682 21.7505V31.8809H364.229V22.0642C364.229 21.3115 364.124 20.6842 363.915 20.1824C363.706 19.6806 363.392 19.3147 362.974 19.0847C362.556 18.8547 362.023 18.7501 361.375 18.771C360.873 18.771 360.413 18.8547 359.995 19.0219C359.577 19.1683 359.2 19.3879 358.866 19.6806C358.552 19.9733 358.312 20.3078 358.144 20.6842C357.977 21.0606 357.893 21.4787 357.893 21.9387V31.8809H355.667C355.207 31.8809 354.788 31.8809 354.412 31.8809C354.036 31.8809 353.712 31.8809 353.44 31.8809ZM378.533 32.1945C377.006 32.1945 375.637 31.9436 374.424 31.4418C373.232 30.94 372.26 30.2291 371.507 29.3091L374.299 26.9255C374.947 27.6155 375.658 28.1173 376.431 28.4309C377.226 28.7236 378.031 28.87 378.846 28.87C379.139 28.87 379.411 28.8386 379.662 28.7759C379.913 28.6923 380.132 28.5877 380.32 28.4623C380.508 28.3159 380.644 28.1486 380.728 27.9605C380.833 27.7723 380.885 27.5527 380.885 27.3018C380.885 26.8418 380.697 26.4864 380.32 26.2355C380.153 26.11 379.839 25.9741 379.379 25.8278C378.94 25.6605 378.376 25.4828 377.686 25.2946C376.619 25.0228 375.72 24.7091 374.989 24.3537C374.257 23.9773 373.661 23.5487 373.201 23.0678C372.825 22.6705 372.532 22.2105 372.323 21.6878C372.135 21.1651 372.04 20.5901 372.04 19.9628C372.04 18.9592 372.333 18.0811 372.919 17.3283C373.504 16.5756 374.278 15.9902 375.239 15.572C376.222 15.1538 377.289 14.9447 378.439 14.9447C379.296 14.9447 380.122 15.0493 380.916 15.2584C381.732 15.4675 382.484 15.7706 383.174 16.1679C383.885 16.5443 384.502 16.9938 385.025 17.5165L382.641 20.1824C382.265 19.806 381.836 19.4819 381.355 19.2101C380.874 18.9174 380.393 18.6874 379.913 18.5201C379.432 18.332 378.993 18.2379 378.595 18.2379C378.24 18.2379 377.916 18.2692 377.623 18.332C377.351 18.3947 377.121 18.4992 376.933 18.6456C376.745 18.771 376.599 18.9279 376.494 19.116C376.41 19.3042 376.369 19.5133 376.369 19.7433C376.369 19.9733 376.421 20.1928 376.525 20.4019C376.651 20.5901 376.818 20.7678 377.027 20.9351C377.236 21.0606 377.571 21.2069 378.031 21.3742C378.512 21.5415 379.129 21.7296 379.881 21.9387C380.885 22.2105 381.732 22.5137 382.422 22.8483C383.112 23.1828 383.666 23.5696 384.084 24.0087C384.46 24.3851 384.722 24.8241 384.868 25.326C385.035 25.8069 385.119 26.3296 385.119 26.8941C385.119 27.9186 384.826 28.8386 384.241 29.6541C383.676 30.4486 382.892 31.0759 381.888 31.5359C380.906 31.9749 379.787 32.1945 378.533 32.1945ZM218.462 76.8749V53.4152H220.845L220.877 57.7747L220.438 57.6178C220.626 56.8233 221.023 56.0915 221.629 55.4224C222.257 54.7533 223.009 54.2097 223.888 53.7915C224.787 53.3734 225.717 53.1643 226.679 53.1643C228.184 53.1643 229.522 53.5302 230.693 54.262C231.864 54.9938 232.784 55.9974 233.453 57.2729C234.122 58.5483 234.457 60.0015 234.457 61.6323C234.457 63.2632 234.122 64.7268 233.453 66.0232C232.784 67.2986 231.864 68.3127 230.693 69.0654C229.543 69.7972 228.247 70.1631 226.804 70.1631C225.78 70.1631 224.797 69.954 223.856 69.5359C222.936 69.1177 222.142 68.5636 221.473 67.8736C220.824 67.1836 220.427 66.4414 220.281 65.6468L220.877 65.3959V76.8749H218.462ZM226.428 67.9677C227.536 67.9677 228.519 67.6959 229.376 67.1523C230.254 66.6086 230.934 65.8559 231.415 64.8941C231.917 63.9323 232.167 62.845 232.167 61.6323C232.167 60.4405 231.917 59.3742 231.415 58.4333C230.934 57.4924 230.265 56.7501 229.407 56.2065C228.55 55.6629 227.557 55.3911 226.428 55.3911C225.341 55.3911 224.368 55.6629 223.511 56.2065C222.675 56.7292 222.006 57.461 221.504 58.4019C221.023 59.3428 220.783 60.4301 220.783 61.6637C220.783 62.8764 221.023 63.9637 221.504 64.9255C222.006 65.8664 222.675 66.6086 223.511 67.1523C224.368 67.6959 225.341 67.9677 226.428 67.9677ZM245.437 70.1945C243.785 70.1945 242.322 69.839 241.046 69.1281C239.771 68.3963 238.767 67.3927 238.035 66.1173C237.324 64.8418 236.969 63.3887 236.969 61.7578C236.969 60.4824 237.168 59.3219 237.565 58.2765C237.983 57.2101 238.548 56.3006 239.258 55.5479C239.99 54.7743 240.858 54.1784 241.862 53.7602C242.865 53.342 243.963 53.1329 245.155 53.1329C246.2 53.1329 247.172 53.3211 248.072 53.6974C248.991 54.0738 249.786 54.6174 250.455 55.3283C251.124 56.0183 251.636 56.8442 251.992 57.806C252.347 58.7469 252.504 59.7924 252.462 60.9423L252.431 62.1341H238.694L238.192 60.1896H250.455L250.016 60.7228L250.047 59.9387C250.006 59.0396 249.755 58.2451 249.295 57.5551C248.835 56.8651 248.239 56.3215 247.507 55.9242C246.796 55.527 246.012 55.3283 245.155 55.3283C243.942 55.3283 242.897 55.5897 242.018 56.1124C241.14 56.6142 240.471 57.3356 240.011 58.2765C239.572 59.1965 239.342 60.3046 239.321 61.601C239.342 62.8973 239.614 64.0264 240.137 64.9882C240.659 65.9291 241.391 66.6714 242.332 67.215C243.294 67.7377 244.402 67.9991 245.657 67.9991C246.556 67.9991 247.392 67.8527 248.166 67.56C248.939 67.2464 249.723 66.7341 250.518 66.0232L251.71 67.7168C251.208 68.2186 250.612 68.6577 249.922 69.0341C249.253 69.3895 248.532 69.6718 247.758 69.8809C246.984 70.0899 246.211 70.1945 245.437 70.1945ZM255.889 69.8809V53.4152H258.273L258.304 58.1824L258.022 57.3669C258.231 56.6142 258.587 55.9138 259.088 55.2656C259.611 54.6174 260.238 54.1052 260.97 53.7288C261.702 53.3315 262.507 53.1329 263.385 53.1329C263.741 53.1329 264.075 53.1643 264.389 53.227C264.702 53.2688 264.964 53.3315 265.173 53.4152L264.546 56.0183C264.253 55.9138 263.95 55.8301 263.636 55.7674C263.343 55.6838 263.061 55.642 262.789 55.642C262.141 55.642 261.535 55.7779 260.97 56.0497C260.426 56.3006 259.956 56.6456 259.559 57.0847C259.162 57.5238 258.848 58.0256 258.618 58.5901C258.409 59.1337 258.304 59.6983 258.304 60.2837V69.8809H255.889ZM286.761 69.8809V58.9037C286.761 57.8374 286.385 56.9801 285.632 56.332C284.88 55.6838 283.886 55.3597 282.653 55.3597C281.628 55.3597 280.698 55.5688 279.862 55.987C279.025 56.4051 278.283 57.0324 277.635 57.8688L276.067 56.3006C277.007 55.2342 278.032 54.4397 279.14 53.917C280.269 53.3943 281.492 53.1329 282.81 53.1329C284.064 53.1329 285.151 53.342 286.071 53.7602C286.991 54.1784 287.692 54.7847 288.173 55.5792C288.675 56.3738 288.926 57.3356 288.926 58.4647V69.8809H286.761ZM281.116 70.1945C280.05 70.1945 279.098 69.9854 278.262 69.5672C277.426 69.1491 276.757 68.5741 276.255 67.8423C275.774 67.0895 275.533 66.2114 275.533 65.2077C275.533 64.3923 275.68 63.6709 275.973 63.0437C276.286 62.4164 276.736 61.8937 277.321 61.4755C277.907 61.0573 278.649 60.7437 279.548 60.5346C280.447 60.3046 281.472 60.1896 282.622 60.1896H287.828L287.64 62.1655H282.308C281.576 62.1655 280.928 62.2282 280.363 62.3537C279.82 62.4791 279.349 62.6778 278.952 62.9496C278.576 63.2005 278.283 63.5141 278.074 63.8905C277.886 64.2459 277.792 64.6746 277.792 65.1764C277.792 65.7618 277.938 66.2845 278.231 66.7445C278.544 67.1836 278.952 67.5286 279.454 67.7795C279.977 68.0095 280.562 68.1245 281.21 68.1245C282.067 68.1245 282.872 67.9782 283.625 67.6854C284.378 67.3718 285.047 66.9536 285.632 66.4309C286.239 65.8873 286.72 65.2809 287.075 64.6118L287.734 66.1173C287.274 66.9118 286.699 67.6227 286.009 68.25C285.319 68.8563 284.556 69.3372 283.719 69.6927C282.904 70.0272 282.036 70.1945 281.116 70.1945ZM293.133 69.8809V53.4152H295.517V56.9279L295.046 57.2101C295.276 56.4783 295.694 55.8092 296.301 55.2029C296.907 54.5965 297.639 54.1052 298.496 53.7288C299.353 53.3315 300.242 53.1329 301.162 53.1329C302.396 53.1329 303.431 53.3734 304.267 53.8543C305.124 54.3143 305.772 55.0356 306.212 56.0183C306.651 57.001 306.87 58.2451 306.87 59.7505V69.8809H304.487V59.9074C304.487 58.841 304.33 57.9628 304.016 57.2729C303.723 56.5829 303.274 56.0811 302.667 55.7674C302.082 55.4538 301.34 55.3074 300.441 55.3283C299.73 55.3283 299.071 55.4433 298.465 55.6733C297.879 55.9033 297.367 56.217 296.928 56.6142C296.489 56.9906 296.144 57.4192 295.893 57.9001C295.642 58.3601 295.517 58.8201 295.517 59.2801V69.8809H294.356C294.168 69.8809 293.969 69.8809 293.76 69.8809C293.551 69.8809 293.342 69.8809 293.133 69.8809ZM311.234 69.8809V53.4152H313.618V56.9279L313.147 57.2101C313.377 56.4783 313.796 55.8092 314.402 55.2029C315.008 54.5965 315.74 54.1052 316.597 53.7288C317.455 53.3315 318.343 53.1329 319.263 53.1329C320.497 53.1329 321.532 53.3734 322.368 53.8543C323.225 54.3143 323.874 55.0356 324.313 56.0183C324.752 57.001 324.971 58.2451 324.971 59.7505V69.8809H322.588V59.9074C322.588 58.841 322.431 57.9628 322.117 57.2729C321.825 56.5829 321.375 56.0811 320.769 55.7674C320.183 55.4538 319.441 55.3074 318.542 55.3283C317.831 55.3283 317.172 55.4433 316.566 55.6733C315.981 55.9033 315.468 56.217 315.029 56.6142C314.59 56.9906 314.245 57.4192 313.994 57.9001C313.743 58.3601 313.618 58.8201 313.618 59.2801V69.8809H312.457C312.269 69.8809 312.071 69.8809 311.862 69.8809C311.652 69.8809 311.443 69.8809 311.234 69.8809ZM335.232 70.1945C334.019 70.1945 332.974 69.9436 332.095 69.4418C331.217 68.9191 330.538 68.1768 330.057 67.215C329.597 66.2323 329.367 65.03 329.367 63.6082V53.4152H331.75V63.0123C331.75 64.6641 332.127 65.9291 332.88 66.8073C333.653 67.6645 334.73 68.0932 336.11 68.0932C336.779 68.0932 337.385 67.9782 337.929 67.7482C338.494 67.4973 338.985 67.1732 339.403 66.7759C339.821 66.3786 340.145 65.9396 340.375 65.4586C340.626 64.9568 340.752 64.455 340.752 63.9532V53.4152H343.135V69.8809H340.783L340.752 66.3055L341.222 66.0545C340.971 66.8073 340.543 67.5077 339.936 68.1559C339.351 68.7831 338.65 69.285 337.835 69.6613C337.04 70.0168 336.173 70.1945 335.232 70.1945ZM347.526 69.8809V53.4152H349.91L349.941 57.1474L349.377 57.3669C349.628 56.7397 349.952 56.1751 350.349 55.6733C350.746 55.1506 351.206 54.7115 351.729 54.3561C352.273 53.9797 352.848 53.687 353.454 53.4779C354.081 53.2688 354.719 53.1643 355.367 53.1643C356.287 53.1643 357.103 53.3211 357.814 53.6347C358.545 53.9274 359.141 54.3874 359.601 55.0147C360.082 55.642 360.427 56.4365 360.636 57.3983H360.197L360.385 56.8651C360.636 56.3215 360.96 55.8301 361.358 55.3911C361.776 54.9311 362.246 54.5338 362.769 54.1993C363.313 53.8647 363.877 53.6138 364.463 53.4465C365.069 53.2584 365.665 53.1643 366.25 53.1643C367.463 53.1643 368.477 53.4047 369.292 53.8856C370.108 54.3665 370.725 55.1088 371.143 56.1124C371.561 57.0951 371.77 58.3497 371.77 59.876V69.8809H369.387V59.9701C369.387 58.381 369.062 57.2206 368.414 56.4888C367.766 55.757 366.804 55.3911 365.529 55.3911C364.86 55.3911 364.233 55.5061 363.647 55.7361C363.083 55.9451 362.591 56.2483 362.173 56.6456C361.755 57.0429 361.431 57.4819 361.201 57.9628C360.971 58.4437 360.856 58.956 360.856 59.4996V69.8809H358.441V59.9387C358.441 58.4124 358.117 57.2729 357.469 56.5201C356.82 55.7674 355.89 55.3911 354.677 55.3911C353.987 55.3911 353.35 55.5061 352.764 55.7361C352.2 55.9661 351.698 56.2692 351.259 56.6456C350.84 57.0219 350.516 57.4506 350.286 57.9315C350.056 58.3915 349.941 58.8619 349.941 59.3428V69.8809H347.526ZM379.086 58.0883L379.305 54.0111L379.525 54.0424L375.949 56.332L375.04 54.7638L378.866 52.882L378.835 53.1329L374.977 51.2511L375.918 49.683L379.525 52.0038L379.305 52.1293L379.086 47.9266H380.936L380.685 52.2547L380.372 52.0666L384.01 49.7457L384.919 51.3138L381.093 53.1956V52.8506L384.888 54.7324L383.978 56.3006L380.372 54.0111L380.685 54.0424L380.936 58.0883H379.086Z" fill="white"/>
<line x1="294.345" y1="169.162" x2="294.345" y2="93.2159" stroke="url(#paint0_linear_197_672)" stroke-width="2.178"/>
<path d="M4.33613 418.836L2.97771 417.395V416.469H5.46814C6.017 416.469 6.45608 416.284 6.7854 415.914C7.12843 415.529 7.29995 415.042 7.29995 414.452C7.29995 414.041 7.2039 413.684 7.0118 413.382C6.83342 413.08 6.57272 412.847 6.22968 412.682C5.90037 412.518 5.50245 412.435 5.03592 412.435H1.82511V409.739H12.075V412.106H7.75276L5.92095 410.583C6.71679 410.665 7.45089 410.871 8.12323 411.2C8.8093 411.516 9.3513 411.941 9.74922 412.476C10.1609 413.011 10.3667 413.656 10.3667 414.411C10.3667 415.029 10.2432 415.605 9.99621 416.14C9.74922 416.675 9.40619 417.142 8.9671 417.54C8.54174 417.937 8.03405 418.253 7.44403 418.486C6.86773 418.72 6.2434 418.836 5.57105 418.836H4.33613ZM7.56752 424.146L3.03946 417.416L6.2091 416.902L11.1282 424.167L7.56752 424.146ZM5.01534 415.276V413.629H12.1367V415.276H5.01534ZM18.3752 424.208C17.3324 424.208 16.3856 423.995 15.5349 423.57C14.6979 423.131 13.9981 422.5 13.4355 421.677L15.1232 419.824C15.7133 420.483 16.2415 420.929 16.7081 421.162C17.1883 421.395 17.7166 421.512 18.2929 421.512C18.7731 421.512 19.1985 421.416 19.569 421.224C19.9532 421.018 20.255 420.737 20.4746 420.38C20.6941 420.023 20.8039 419.632 20.8039 419.207C20.8039 418.754 20.6941 418.349 20.4746 417.992C20.255 417.622 19.96 417.334 19.5896 417.128C19.2328 416.922 18.8212 416.819 18.3546 416.819C18.0665 416.819 17.7921 416.84 17.5313 416.881C17.2844 416.922 17.0031 417.011 16.6875 417.149C16.3719 417.272 15.9808 417.457 15.5143 417.704L14.1147 415.831L14.9997 409.574H23.1091V412.25H16.5846L17.3255 411.344L16.6463 415.872L15.679 415.399C15.8848 415.207 16.1661 415.035 16.5228 414.884C16.8933 414.72 17.2844 414.589 17.696 414.493C18.1214 414.384 18.5399 414.329 18.9515 414.329C19.8571 414.329 20.6598 414.535 21.3596 414.946C22.0731 415.358 22.6357 415.927 23.0473 416.655C23.459 417.382 23.6648 418.219 23.6648 419.166C23.6648 420.112 23.4315 420.97 22.965 421.738C22.4985 422.493 21.8673 423.097 21.0715 423.55C20.2756 423.989 19.3769 424.208 18.3752 424.208ZM31.4847 424.27C30.2635 424.27 29.2138 423.975 28.3357 423.385C27.4712 422.781 26.8057 421.93 26.3392 420.833C25.8864 419.721 25.66 418.397 25.66 416.86C25.66 415.324 25.8864 414.006 26.3392 412.909C26.8057 411.797 27.4712 410.946 28.3357 410.356C29.2138 409.753 30.2635 409.451 31.4847 409.451C32.7059 409.451 33.7488 409.753 34.6132 410.356C35.4914 410.946 36.1569 411.797 36.6097 412.909C37.0762 414.006 37.3095 415.324 37.3095 416.86C37.3095 418.397 37.0762 419.721 36.6097 420.833C36.1569 421.93 35.4914 422.781 34.6132 423.385C33.7488 423.975 32.7059 424.27 31.4847 424.27ZM31.4847 421.615C32.4041 421.615 33.1107 421.203 33.6047 420.38C34.1124 419.543 34.3662 418.37 34.3662 416.86C34.3662 415.31 34.1124 414.116 33.6047 413.279C33.1107 412.442 32.4041 412.024 31.4847 412.024C30.5654 412.024 29.8519 412.442 29.3442 413.279C28.8502 414.116 28.6032 415.31 28.6032 416.86C28.6032 418.37 28.8502 419.543 29.3442 420.38C29.8519 421.203 30.5654 421.615 31.4847 421.615ZM44.8711 424.27C43.6499 424.27 42.6002 423.975 41.7221 423.385C40.8576 422.781 40.1921 421.93 39.7256 420.833C39.2728 419.721 39.0464 418.397 39.0464 416.86C39.0464 415.324 39.2728 414.006 39.7256 412.909C40.1921 411.797 40.8576 410.946 41.7221 410.356C42.6002 409.753 43.6499 409.451 44.8711 409.451C46.0923 409.451 47.1352 409.753 47.9996 410.356C48.8778 410.946 49.5433 411.797 49.9961 412.909C50.4626 414.006 50.6959 415.324 50.6959 416.86C50.6959 418.397 50.4626 419.721 49.9961 420.833C49.5433 421.93 48.8778 422.781 47.9996 423.385C47.1352 423.975 46.0923 424.27 44.8711 424.27ZM44.8711 421.615C45.7905 421.615 46.4971 421.203 46.9911 420.38C47.4988 419.543 47.7526 418.37 47.7526 416.86C47.7526 415.31 47.4988 414.116 46.9911 413.279C46.4971 412.442 45.7905 412.024 44.8711 412.024C43.9518 412.024 43.2383 412.442 42.7306 413.279C42.2366 414.116 41.9896 415.31 41.9896 416.86C41.9896 418.37 42.2366 419.543 42.7306 420.38C43.2383 421.203 43.9518 421.615 44.8711 421.615ZM58.2575 424.27C57.0363 424.27 55.9866 423.975 55.1085 423.385C54.244 422.781 53.5785 421.93 53.112 420.833C52.6592 419.721 52.4328 418.397 52.4328 416.86C52.4328 415.324 52.6592 414.006 53.112 412.909C53.5785 411.797 54.244 410.946 55.1085 410.356C55.9866 409.753 57.0363 409.451 58.2575 409.451C59.4787 409.451 60.5216 409.753 61.386 410.356C62.2642 410.946 62.9297 411.797 63.3825 412.909C63.849 414.006 64.0823 415.324 64.0823 416.86C64.0823 418.397 63.849 419.721 63.3825 420.833C62.9297 421.93 62.2642 422.781 61.386 423.385C60.5216 423.975 59.4787 424.27 58.2575 424.27ZM58.2575 421.615C59.1769 421.615 59.8835 421.203 60.3775 420.38C60.8852 419.543 61.139 418.37 61.139 416.86C61.139 415.31 60.8852 414.116 60.3775 413.279C59.8835 412.442 59.1769 412.024 58.2575 412.024C57.3382 412.024 56.6247 412.442 56.117 413.279C55.623 414.116 55.376 415.31 55.376 416.86C55.376 418.37 55.623 419.543 56.117 420.38C56.6247 421.203 57.3382 421.615 58.2575 421.615ZM72.7073 428.654V413.258H74.2715L74.2921 416.119L74.004 416.016C74.1275 415.495 74.3882 415.015 74.7861 414.576C75.1977 414.137 75.6917 413.78 76.268 413.505C76.858 413.231 77.4686 413.094 78.0998 413.094C79.0877 413.094 79.9659 413.334 80.7343 413.814C81.5027 414.294 82.1064 414.953 82.5455 415.79C82.9846 416.627 83.2042 417.581 83.2042 418.651C83.2042 419.721 82.9846 420.682 82.5455 421.532C82.1064 422.369 81.5027 423.035 80.7343 423.529C79.9796 424.009 79.1289 424.249 78.1821 424.249C77.5098 424.249 76.8649 424.112 76.2474 423.838C75.6437 423.563 75.1223 423.2 74.6832 422.747C74.2578 422.294 73.9971 421.807 73.901 421.286L74.2921 421.121V428.654H72.7073ZM77.9351 422.809C78.6624 422.809 79.3073 422.63 79.8699 422.273C80.4462 421.917 80.8921 421.423 81.2077 420.792C81.537 420.16 81.7017 419.447 81.7017 418.651C81.7017 417.869 81.537 417.169 81.2077 416.552C80.8921 415.934 80.453 415.447 79.8904 415.09C79.3279 414.734 78.6761 414.555 77.9351 414.555C77.2216 414.555 76.5836 414.734 76.021 415.09C75.4721 415.433 75.0331 415.914 74.7037 416.531C74.3882 417.149 74.2304 417.862 74.2304 418.672C74.2304 419.467 74.3882 420.181 74.7037 420.812C75.0331 421.43 75.4721 421.917 76.021 422.273C76.5836 422.63 77.2216 422.809 77.9351 422.809ZM90.4098 424.27C89.3258 424.27 88.3653 424.037 87.5283 423.57C86.6913 423.09 86.0327 422.431 85.5524 421.594C85.0859 420.757 84.8527 419.804 84.8527 418.733C84.8527 417.896 84.983 417.135 85.2437 416.449C85.5181 415.749 85.8886 415.152 86.3552 414.658C86.8354 414.15 87.4048 413.759 88.0635 413.485C88.7221 413.21 89.4425 413.073 90.2246 413.073C90.9107 413.073 91.5487 413.197 92.1387 413.444C92.7425 413.691 93.2639 414.047 93.703 414.514C94.142 414.967 94.4782 415.509 94.7115 416.14C94.9447 416.757 95.0477 417.444 95.0202 418.198L94.9996 418.98H85.9847L85.6554 417.704H93.703L93.4148 418.054L93.4354 417.54C93.4079 416.95 93.2433 416.428 92.9414 415.975C92.6396 415.523 92.2485 415.166 91.7682 414.905C91.3017 414.644 90.7872 414.514 90.2246 414.514C89.4287 414.514 88.7427 414.686 88.1664 415.029C87.5901 415.358 87.151 415.831 86.8491 416.449C86.561 417.052 86.41 417.78 86.3963 418.63C86.41 419.481 86.5884 420.222 86.9314 420.853C87.2745 421.471 87.7547 421.958 88.3722 422.315C89.0034 422.658 89.7306 422.829 90.5539 422.829C91.1439 422.829 91.6928 422.733 92.2005 422.541C92.7082 422.335 93.2227 421.999 93.7441 421.532L94.5262 422.644C94.1969 422.973 93.8059 423.261 93.3531 423.508C92.914 423.742 92.4406 423.927 91.9329 424.064C91.4252 424.201 90.9175 424.27 90.4098 424.27ZM97.2691 424.064V413.258H98.8334L98.854 416.387L98.6687 415.852C98.8059 415.358 99.0392 414.898 99.3685 414.473C99.7115 414.047 100.123 413.711 100.603 413.464C101.084 413.204 101.612 413.073 102.188 413.073C102.422 413.073 102.641 413.094 102.847 413.135C103.053 413.162 103.224 413.204 103.361 413.258L102.95 414.967C102.758 414.898 102.559 414.843 102.353 414.802C102.161 414.747 101.976 414.72 101.797 414.72C101.372 414.72 100.974 414.809 100.603 414.987C100.247 415.152 99.9379 415.378 99.6772 415.667C99.4165 415.955 99.2107 416.284 99.0598 416.655C98.9226 417.011 98.854 417.382 98.854 417.766V424.064H97.2691ZM114.318 424.27C113.413 424.27 112.596 424.112 111.869 423.797C111.142 423.467 110.552 423.001 110.099 422.397L111.169 421.471C111.567 421.965 112.04 422.335 112.589 422.582C113.138 422.829 113.762 422.953 114.462 422.953C114.819 422.953 115.135 422.911 115.409 422.829C115.683 422.733 115.917 422.61 116.109 422.459C116.301 422.294 116.438 422.109 116.52 421.903C116.617 421.683 116.665 421.45 116.665 421.203C116.665 420.75 116.486 420.387 116.129 420.112C115.937 419.975 115.67 419.845 115.327 419.721C114.997 419.584 114.593 419.454 114.112 419.33C113.371 419.152 112.747 418.946 112.239 418.713C111.745 418.466 111.354 418.184 111.066 417.869C110.847 417.622 110.682 417.354 110.572 417.066C110.462 416.778 110.408 416.449 110.408 416.078C110.408 415.488 110.572 414.967 110.902 414.514C111.231 414.061 111.677 413.711 112.239 413.464C112.816 413.204 113.467 413.073 114.195 413.073C114.689 413.073 115.176 413.142 115.656 413.279C116.15 413.416 116.603 413.615 117.014 413.876C117.426 414.137 117.783 414.452 118.085 414.823L117.159 415.811C116.884 415.523 116.582 415.276 116.253 415.07C115.937 414.85 115.608 414.686 115.265 414.576C114.922 414.452 114.586 414.391 114.256 414.391C113.9 414.391 113.577 414.432 113.289 414.514C113.001 414.583 112.754 414.692 112.548 414.843C112.356 414.981 112.212 415.152 112.116 415.358C112.02 415.55 111.972 415.776 111.972 416.037C111.986 416.229 112.034 416.421 112.116 416.613C112.198 416.792 112.315 416.943 112.466 417.066C112.658 417.217 112.932 417.368 113.289 417.519C113.646 417.656 114.078 417.78 114.586 417.889C115.244 418.054 115.8 418.239 116.253 418.445C116.706 418.637 117.069 418.871 117.344 419.145C117.632 419.392 117.838 419.68 117.961 420.009C118.085 420.339 118.146 420.716 118.146 421.141C118.146 421.759 117.982 422.308 117.652 422.788C117.323 423.255 116.87 423.618 116.294 423.879C115.718 424.14 115.059 424.27 114.318 424.27ZM122.088 424.064V410.5H123.652V424.064H122.088ZM119.598 414.782V413.258H126.349V414.782H119.598ZM132.092 424.27C131.296 424.27 130.61 424.105 130.034 423.776C129.458 423.433 129.012 422.946 128.696 422.315C128.394 421.67 128.243 420.881 128.243 419.948V413.258H129.807V419.557C129.807 420.641 130.054 421.471 130.548 422.047C131.056 422.61 131.763 422.891 132.668 422.891C133.107 422.891 133.505 422.815 133.862 422.665C134.233 422.5 134.555 422.287 134.83 422.026C135.104 421.766 135.317 421.478 135.468 421.162C135.632 420.833 135.715 420.503 135.715 420.174V413.258H137.279V424.064H135.735L135.715 421.718L136.023 421.553C135.859 422.047 135.577 422.507 135.179 422.932C134.795 423.344 134.336 423.673 133.8 423.92C133.279 424.153 132.71 424.27 132.092 424.27ZM144.771 424.27C143.769 424.27 142.877 424.03 142.095 423.55C141.327 423.056 140.716 422.39 140.263 421.553C139.811 420.716 139.584 419.762 139.584 418.692C139.584 417.608 139.811 416.648 140.263 415.811C140.716 414.96 141.327 414.294 142.095 413.814C142.877 413.32 143.749 413.073 144.709 413.073C145.244 413.073 145.766 413.162 146.273 413.341C146.781 413.519 147.234 413.766 147.632 414.082C148.043 414.384 148.373 414.727 148.62 415.111C148.867 415.495 149.004 415.893 149.031 416.305H148.599V408.833H150.163V424.064H148.599V421.162L148.928 421.141C148.887 421.553 148.743 421.944 148.496 422.315C148.249 422.685 147.934 423.021 147.549 423.323C147.179 423.611 146.754 423.845 146.273 424.023C145.793 424.188 145.292 424.27 144.771 424.27ZM144.956 422.891C145.67 422.891 146.301 422.713 146.85 422.356C147.412 421.985 147.851 421.484 148.167 420.853C148.482 420.222 148.64 419.495 148.64 418.672C148.64 417.848 148.482 417.121 148.167 416.49C147.851 415.859 147.412 415.358 146.85 414.987C146.301 414.617 145.663 414.432 144.935 414.432C144.208 414.432 143.556 414.617 142.98 414.987C142.418 415.358 141.972 415.866 141.642 416.51C141.327 417.142 141.169 417.869 141.169 418.692C141.169 419.488 141.327 420.208 141.642 420.853C141.972 421.484 142.418 421.985 142.98 422.356C143.556 422.713 144.215 422.891 144.956 422.891ZM157.985 424.27C156.901 424.27 155.941 424.037 155.104 423.57C154.267 423.09 153.608 422.431 153.128 421.594C152.661 420.757 152.428 419.804 152.428 418.733C152.428 417.896 152.558 417.135 152.819 416.449C153.093 415.749 153.464 415.152 153.93 414.658C154.411 414.15 154.98 413.759 155.639 413.485C156.297 413.21 157.018 413.073 157.8 413.073C158.486 413.073 159.124 413.197 159.714 413.444C160.318 413.691 160.839 414.047 161.278 414.514C161.717 414.967 162.053 415.509 162.287 416.14C162.52 416.757 162.623 417.444 162.595 418.198L162.575 418.98H153.56L153.231 417.704H161.278L160.99 418.054L161.011 417.54C160.983 416.95 160.819 416.428 160.517 415.975C160.215 415.523 159.824 415.166 159.343 414.905C158.877 414.644 158.362 414.514 157.8 414.514C157.004 414.514 156.318 414.686 155.742 415.029C155.165 415.358 154.726 415.831 154.424 416.449C154.136 417.052 153.985 417.78 153.972 418.63C153.985 419.481 154.164 420.222 154.507 420.853C154.85 421.471 155.33 421.958 155.947 422.315C156.579 422.658 157.306 422.829 158.129 422.829C158.719 422.829 159.268 422.733 159.776 422.541C160.283 422.335 160.798 421.999 161.319 421.532L162.101 422.644C161.772 422.973 161.381 423.261 160.928 423.508C160.489 423.742 160.016 423.927 159.508 424.064C159 424.201 158.493 424.27 157.985 424.27ZM164.844 424.064V413.258H166.409V415.564L166.1 415.749C166.251 415.269 166.525 414.83 166.923 414.432C167.321 414.034 167.801 413.711 168.364 413.464C168.926 413.204 169.51 413.073 170.113 413.073C170.923 413.073 171.602 413.231 172.151 413.547C172.714 413.849 173.139 414.322 173.427 414.967C173.715 415.612 173.859 416.428 173.859 417.416V424.064H172.295V417.519C172.295 416.819 172.192 416.243 171.986 415.79C171.794 415.337 171.499 415.008 171.101 414.802C170.717 414.596 170.23 414.5 169.64 414.514C169.173 414.514 168.741 414.589 168.343 414.74C167.959 414.891 167.623 415.097 167.335 415.358C167.047 415.605 166.82 415.886 166.656 416.202C166.491 416.504 166.409 416.805 166.409 417.107V424.064H165.647C165.524 424.064 165.393 424.064 165.256 424.064C165.119 424.064 164.982 424.064 164.844 424.064ZM178.267 424.064V410.5H179.831V424.064H178.267ZM175.776 414.782V413.258H182.527V414.782H175.776ZM186.398 416.325L186.542 413.65L186.686 413.67L184.34 415.173L183.743 414.144L186.254 412.909L186.233 413.073L183.702 411.838L184.319 410.809L186.686 412.332L186.542 412.415L186.398 409.657H187.612L187.447 412.497L187.242 412.373L189.629 410.85L190.226 411.879L187.715 413.114V412.888L190.205 414.123L189.609 415.152L187.242 413.65L187.447 413.67L187.612 416.325H186.398Z" fill="white"/>
<line y1="-1.089" x2="83.3085" y2="-1.089" transform="matrix(-1 0 0 1 289.01 416.564)" stroke="url(#paint1_linear_197_672)" stroke-width="2.178"/>
<circle cx="293.782" cy="416.564" r="14.5726" transform="rotate(-90 293.782 416.564)" fill="#FDE74C"/>
<circle cx="295.434" cy="284.123" r="147.015" fill="url(#paint2_linear_197_672)"/>
<path d="M267.87 283.261C266.337 283.261 264.895 282.985 263.546 282.433C262.227 281.881 261.077 281.099 260.096 280.087C259.115 279.075 258.333 277.894 257.75 276.545C257.198 275.165 256.922 273.647 256.922 271.991C256.922 270.856 257.106 269.583 257.474 268.173C257.842 266.731 258.394 265.198 259.13 263.573C259.866 261.917 260.801 260.169 261.936 258.329L266.766 250.555H270.308L270.446 250.969L265.11 259.617C264.221 261.058 263.423 262.453 262.718 263.803C262.043 265.121 261.476 266.348 261.016 267.483C260.587 268.617 260.295 269.629 260.142 270.519L259.314 267.299C260.081 265.949 260.939 264.83 261.89 263.941C262.841 263.021 263.883 262.331 265.018 261.871C266.153 261.38 267.364 261.135 268.652 261.135C270.492 261.135 272.163 261.625 273.666 262.607C275.199 263.557 276.411 264.83 277.3 266.425C278.22 268.019 278.68 269.798 278.68 271.761C278.68 273.938 278.205 275.901 277.254 277.649C276.334 279.397 275.061 280.777 273.436 281.789C271.811 282.77 269.955 283.261 267.87 283.261ZM267.916 279.903C269.296 279.903 270.523 279.565 271.596 278.891C272.7 278.216 273.574 277.296 274.218 276.131C274.862 274.965 275.184 273.631 275.184 272.129C275.184 270.749 274.847 269.491 274.172 268.357C273.528 267.191 272.669 266.271 271.596 265.597C270.523 264.891 269.311 264.539 267.962 264.539C266.551 264.539 265.279 264.876 264.144 265.551C263.009 266.225 262.12 267.145 261.476 268.311C260.832 269.445 260.51 270.718 260.51 272.129C260.51 273.57 260.832 274.889 261.476 276.085C262.12 277.25 262.994 278.185 264.098 278.891C265.233 279.565 266.505 279.903 267.916 279.903ZM298.517 283.123V255.385L299.483 255.569L286.419 271.485L286.235 271.025H307.625V274.383H284.073L282.509 271.301L299.161 250.923H302.013V283.123H298.517ZM322.856 283.261C320.863 283.261 319.038 282.847 317.382 282.019C315.757 281.191 314.454 280.087 313.472 278.707C312.522 277.296 312.046 275.747 312.046 274.061C312.046 273.049 312.184 272.098 312.46 271.209C312.767 270.319 313.212 269.522 313.794 268.817C314.408 268.081 315.128 267.421 315.956 266.839C316.784 266.256 317.75 265.781 318.854 265.413L318.716 266.241C317.551 265.903 316.539 265.397 315.68 264.723C314.822 264.017 314.162 263.205 313.702 262.285C313.273 261.365 313.058 260.399 313.058 259.387C313.058 257.761 313.488 256.305 314.346 255.017C315.236 253.698 316.416 252.671 317.888 251.935C319.391 251.168 321.047 250.785 322.856 250.785C324.696 250.785 326.352 251.168 327.824 251.935C329.327 252.671 330.523 253.698 331.412 255.017C332.302 256.305 332.746 257.761 332.746 259.387C332.746 260.399 332.516 261.349 332.056 262.239C331.627 263.128 330.983 263.925 330.124 264.631C329.266 265.305 328.223 265.842 326.996 266.241L326.95 265.505C328.3 265.965 329.48 266.624 330.492 267.483C331.535 268.341 332.332 269.338 332.884 270.473C333.467 271.577 333.758 272.773 333.758 274.061C333.758 275.778 333.268 277.342 332.286 278.753C331.305 280.133 329.986 281.237 328.33 282.065C326.705 282.862 324.88 283.261 322.856 283.261ZM322.856 279.857C324.236 279.857 325.463 279.596 326.536 279.075C327.64 278.523 328.514 277.802 329.158 276.913C329.802 276.023 330.124 275.027 330.124 273.923C330.124 272.727 329.802 271.669 329.158 270.749C328.545 269.798 327.686 269.062 326.582 268.541C325.509 267.989 324.267 267.713 322.856 267.713C321.507 267.713 320.28 267.989 319.176 268.541C318.103 269.062 317.244 269.798 316.6 270.749C315.956 271.669 315.634 272.727 315.634 273.923C315.634 274.996 315.956 275.993 316.6 276.913C317.244 277.802 318.103 278.523 319.176 279.075C320.28 279.596 321.507 279.857 322.856 279.857ZM322.856 264.493C324.052 264.493 325.11 264.278 326.03 263.849C326.981 263.389 327.732 262.775 328.284 262.009C328.836 261.242 329.112 260.368 329.112 259.387C329.112 258.375 328.836 257.485 328.284 256.719C327.732 255.952 326.981 255.339 326.03 254.879C325.11 254.388 324.052 254.143 322.856 254.143C321.66 254.143 320.587 254.388 319.636 254.879C318.716 255.339 317.98 255.952 317.428 256.719C316.907 257.485 316.646 258.375 316.646 259.387C316.646 260.368 316.907 261.242 317.428 262.009C317.98 262.745 318.716 263.343 319.636 263.803C320.587 264.263 321.66 264.493 322.856 264.493ZM256.779 307.311C255.825 307.311 254.972 307.16 254.219 306.859C253.467 306.546 252.865 306.119 252.413 305.58L254.257 303.999C254.646 304.388 255.085 304.676 255.574 304.864C256.064 305.04 256.528 305.128 256.967 305.128C257.13 305.128 257.274 305.109 257.4 305.071C257.525 305.034 257.632 304.984 257.72 304.921C257.82 304.846 257.895 304.764 257.945 304.676C257.996 304.576 258.021 304.463 258.021 304.338C258.021 304.087 257.914 303.898 257.701 303.773C257.6 303.71 257.419 303.635 257.155 303.547C256.892 303.447 256.553 303.346 256.139 303.246C255.549 303.096 255.035 302.914 254.596 302.7C254.169 302.487 253.818 302.242 253.542 301.966C253.291 301.716 253.097 301.427 252.959 301.101C252.833 300.775 252.77 300.411 252.77 300.009C252.77 299.395 252.952 298.855 253.316 298.391C253.693 297.927 254.182 297.569 254.784 297.318C255.386 297.055 256.039 296.923 256.741 296.923C257.293 296.923 257.814 296.986 258.303 297.111C258.805 297.237 259.269 297.413 259.695 297.638C260.135 297.864 260.523 298.134 260.862 298.448L259.263 300.235C259.049 300.022 258.798 299.834 258.51 299.671C258.221 299.495 257.933 299.357 257.644 299.257C257.356 299.144 257.086 299.087 256.835 299.087C256.647 299.087 256.478 299.106 256.327 299.144C256.189 299.169 256.07 299.219 255.97 299.294C255.882 299.357 255.813 299.439 255.763 299.539C255.712 299.627 255.687 299.727 255.687 299.84C255.687 299.978 255.719 300.104 255.781 300.216C255.857 300.317 255.957 300.411 256.082 300.499C256.195 300.561 256.39 300.643 256.666 300.743C256.954 300.844 257.331 300.957 257.795 301.082C258.384 301.245 258.886 301.433 259.3 301.647C259.727 301.847 260.066 302.086 260.316 302.362C260.53 302.575 260.68 302.826 260.768 303.114C260.868 303.39 260.919 303.691 260.919 304.018C260.919 304.657 260.737 305.228 260.373 305.73C260.022 306.219 259.532 306.608 258.905 306.897C258.29 307.173 257.582 307.311 256.779 307.311ZM263.555 307.123V294.609H266.585V307.123H263.555ZM261.786 299.784V297.13H268.504V299.784H261.786ZM273.65 307.311C272.922 307.311 272.295 307.154 271.768 306.84C271.241 306.514 270.833 306.056 270.545 305.467C270.269 304.864 270.131 304.143 270.131 303.303V297.13H273.16V302.851C273.16 303.466 273.305 303.949 273.593 304.3C273.894 304.639 274.308 304.808 274.835 304.808C275.099 304.808 275.337 304.77 275.55 304.695C275.763 304.607 275.945 304.488 276.096 304.338C276.259 304.174 276.384 303.986 276.472 303.773C276.56 303.56 276.604 303.328 276.604 303.077V297.13H279.634V307.123H276.792L276.679 305.071L277.225 304.846C277.087 305.31 276.836 305.73 276.472 306.106C276.121 306.483 275.701 306.778 275.211 306.991C274.722 307.204 274.202 307.311 273.65 307.311ZM286.137 307.311C285.284 307.311 284.512 307.091 283.822 306.652C283.145 306.213 282.611 305.605 282.223 304.827C281.834 304.036 281.639 303.139 281.639 302.136C281.639 301.132 281.834 300.242 282.223 299.464C282.611 298.673 283.145 298.052 283.822 297.601C284.512 297.149 285.29 296.923 286.156 296.923C286.607 296.923 287.04 296.992 287.454 297.13C287.88 297.268 288.257 297.456 288.583 297.695C288.922 297.933 289.198 298.203 289.411 298.504C289.624 298.805 289.756 299.125 289.806 299.464L289.072 299.633V293.197H292.102V307.123H289.279L289.11 304.864L289.712 304.977C289.687 305.278 289.574 305.573 289.373 305.862C289.173 306.138 288.903 306.389 288.564 306.615C288.238 306.828 287.868 306.997 287.454 307.123C287.04 307.248 286.601 307.311 286.137 307.311ZM286.889 304.808C287.354 304.808 287.749 304.701 288.075 304.488C288.414 304.262 288.677 303.949 288.865 303.547C289.053 303.146 289.148 302.675 289.148 302.136C289.148 301.584 289.053 301.107 288.865 300.706C288.677 300.304 288.414 299.997 288.075 299.784C287.749 299.558 287.354 299.445 286.889 299.445C286.438 299.445 286.043 299.558 285.704 299.784C285.378 299.997 285.121 300.304 284.932 300.706C284.744 301.107 284.65 301.584 284.65 302.136C284.65 302.675 284.744 303.146 284.932 303.547C285.121 303.949 285.378 304.262 285.704 304.488C286.043 304.701 286.438 304.808 286.889 304.808ZM299.409 307.311C298.305 307.311 297.339 307.091 296.511 306.652C295.696 306.213 295.062 305.611 294.61 304.846C294.171 304.068 293.952 303.183 293.952 302.192C293.952 301.414 294.077 300.706 294.328 300.066C294.579 299.414 294.93 298.855 295.382 298.391C295.846 297.927 296.386 297.569 297 297.318C297.627 297.055 298.311 296.923 299.051 296.923C299.754 296.923 300.394 297.049 300.971 297.3C301.548 297.551 302.05 297.902 302.476 298.353C302.903 298.805 303.229 299.338 303.455 299.953C303.681 300.568 303.787 301.239 303.775 301.966L303.756 302.794H295.815L295.363 301.082H301.291L300.971 301.421V301.044C300.946 300.731 300.845 300.461 300.67 300.235C300.507 299.997 300.287 299.809 300.011 299.671C299.748 299.533 299.447 299.464 299.108 299.464C298.606 299.464 298.179 299.564 297.828 299.765C297.489 299.953 297.232 300.229 297.057 300.593C296.881 300.957 296.793 301.408 296.793 301.948C296.793 302.487 296.906 302.964 297.132 303.378C297.37 303.792 297.709 304.112 298.148 304.338C298.6 304.563 299.133 304.676 299.748 304.676C300.162 304.676 300.538 304.614 300.877 304.488C301.215 304.363 301.579 304.149 301.968 303.848L303.38 305.843C302.991 306.169 302.577 306.445 302.138 306.671C301.698 306.884 301.247 307.041 300.783 307.141C300.331 307.254 299.873 307.311 299.409 307.311ZM305.692 307.123V297.13H308.572L308.685 299.163L308.064 299.388C308.202 298.937 308.446 298.529 308.797 298.165C309.161 297.789 309.594 297.488 310.096 297.262C310.598 297.036 311.125 296.923 311.677 296.923C312.429 296.923 313.063 297.08 313.577 297.394C314.092 297.695 314.474 298.153 314.725 298.767C314.989 299.37 315.12 300.116 315.12 301.007V307.123H312.091V301.233C312.091 300.831 312.034 300.499 311.921 300.235C311.808 299.972 311.639 299.777 311.413 299.652C311.187 299.526 310.905 299.47 310.566 299.483C310.303 299.483 310.058 299.526 309.832 299.614C309.607 299.69 309.406 299.809 309.23 299.972C309.067 300.122 308.942 300.298 308.854 300.499C308.766 300.699 308.722 300.925 308.722 301.176V307.123H307.198C306.872 307.123 306.577 307.123 306.313 307.123C306.063 307.123 305.856 307.123 305.692 307.123ZM318.484 307.123V294.609H321.514V307.123H318.484ZM316.715 299.784V297.13H323.433V299.784H316.715ZM328.908 307.311C327.954 307.311 327.101 307.16 326.349 306.859C325.596 306.546 324.994 306.119 324.542 305.58L326.386 303.999C326.775 304.388 327.214 304.676 327.704 304.864C328.193 305.04 328.657 305.128 329.096 305.128C329.259 305.128 329.403 305.109 329.529 305.071C329.654 305.034 329.761 304.984 329.849 304.921C329.949 304.846 330.024 304.764 330.075 304.676C330.125 304.576 330.15 304.463 330.15 304.338C330.15 304.087 330.043 303.898 329.83 303.773C329.73 303.71 329.548 303.635 329.284 303.547C329.021 303.447 328.682 303.346 328.268 303.246C327.678 303.096 327.164 302.914 326.725 302.7C326.299 302.487 325.947 302.242 325.671 301.966C325.42 301.716 325.226 301.427 325.088 301.101C324.962 300.775 324.9 300.411 324.9 300.009C324.9 299.395 325.082 298.855 325.445 298.391C325.822 297.927 326.311 297.569 326.913 297.318C327.515 297.055 328.168 296.923 328.87 296.923C329.422 296.923 329.943 296.986 330.432 297.111C330.934 297.237 331.398 297.413 331.825 297.638C332.264 297.864 332.653 298.134 332.991 298.448L331.392 300.235C331.179 300.022 330.928 299.834 330.639 299.671C330.351 299.495 330.062 299.357 329.774 299.257C329.485 299.144 329.215 299.087 328.964 299.087C328.776 299.087 328.607 299.106 328.456 299.144C328.318 299.169 328.199 299.219 328.099 299.294C328.011 299.357 327.942 299.439 327.892 299.539C327.842 299.627 327.816 299.727 327.816 299.84C327.816 299.978 327.848 300.104 327.911 300.216C327.986 300.317 328.086 300.411 328.212 300.499C328.325 300.561 328.519 300.643 328.795 300.743C329.084 300.844 329.46 300.957 329.924 301.082C330.514 301.245 331.016 301.433 331.43 301.647C331.856 301.847 332.195 302.086 332.446 302.362C332.659 302.575 332.81 302.826 332.897 303.114C332.998 303.39 333.048 303.691 333.048 304.018C333.048 304.657 332.866 305.228 332.502 305.73C332.151 306.219 331.662 306.608 331.034 306.897C330.42 307.173 329.711 307.311 328.908 307.311ZM254.082 330.62V318.89H255.274L255.289 321.069L255.07 320.991C255.164 320.594 255.363 320.228 255.666 319.893C255.979 319.559 256.356 319.287 256.795 319.078C257.244 318.869 257.71 318.764 258.191 318.764C258.943 318.764 259.612 318.947 260.198 319.313C260.783 319.679 261.243 320.181 261.578 320.819C261.912 321.456 262.08 322.183 262.08 322.998C262.08 323.814 261.912 324.546 261.578 325.194C261.243 325.831 260.783 326.339 260.198 326.715C259.623 327.081 258.975 327.264 258.253 327.264C257.741 327.264 257.25 327.159 256.779 326.95C256.319 326.741 255.922 326.464 255.587 326.119C255.263 325.774 255.065 325.403 254.991 325.006L255.289 324.88V330.62H254.082ZM258.065 326.166C258.619 326.166 259.111 326.03 259.539 325.758C259.978 325.486 260.318 325.11 260.558 324.629C260.809 324.148 260.935 323.605 260.935 322.998C260.935 322.402 260.809 321.869 260.558 321.399C260.318 320.928 259.983 320.557 259.555 320.285C259.126 320.014 258.63 319.878 258.065 319.878C257.521 319.878 257.035 320.014 256.607 320.285C256.189 320.547 255.854 320.913 255.603 321.383C255.363 321.854 255.242 322.397 255.242 323.014C255.242 323.62 255.363 324.164 255.603 324.645C255.854 325.115 256.189 325.486 256.607 325.758C257.035 326.03 257.521 326.166 258.065 326.166ZM267.57 327.279C266.744 327.279 266.012 327.102 265.374 326.746C264.736 326.38 264.235 325.879 263.869 325.241C263.513 324.603 263.336 323.876 263.336 323.061C263.336 322.423 263.435 321.843 263.634 321.32C263.843 320.787 264.125 320.332 264.48 319.956C264.846 319.569 265.28 319.271 265.782 319.062C266.284 318.853 266.833 318.749 267.428 318.749C267.951 318.749 268.437 318.843 268.887 319.031C269.347 319.219 269.744 319.491 270.079 319.846C270.413 320.191 270.669 320.604 270.847 321.085C271.025 321.556 271.103 322.078 271.082 322.653L271.067 323.249H264.198L263.947 322.277H270.079L269.859 322.544L269.875 322.152C269.854 321.702 269.728 321.305 269.498 320.96C269.268 320.615 268.97 320.343 268.605 320.144C268.249 319.946 267.857 319.846 267.428 319.846C266.822 319.846 266.299 319.977 265.86 320.238C265.421 320.489 265.087 320.85 264.857 321.32C264.637 321.78 264.522 322.334 264.512 322.983C264.522 323.631 264.658 324.195 264.919 324.676C265.181 325.147 265.547 325.518 266.017 325.79C266.498 326.051 267.052 326.182 267.679 326.182C268.129 326.182 268.547 326.109 268.934 325.962C269.321 325.805 269.713 325.549 270.11 325.194L270.706 326.041C270.455 326.291 270.157 326.511 269.812 326.699C269.478 326.877 269.117 327.018 268.73 327.123C268.343 327.227 267.956 327.279 267.57 327.279ZM272.796 327.123V318.89H273.988L274.003 321.273L273.862 320.866C273.967 320.489 274.144 320.139 274.395 319.815C274.657 319.491 274.97 319.235 275.336 319.047C275.702 318.848 276.105 318.749 276.544 318.749C276.721 318.749 276.889 318.764 277.045 318.796C277.202 318.817 277.333 318.848 277.437 318.89L277.124 320.191C276.977 320.139 276.826 320.097 276.669 320.066C276.523 320.024 276.382 320.003 276.246 320.003C275.922 320.003 275.618 320.071 275.336 320.207C275.064 320.332 274.829 320.505 274.63 320.724C274.432 320.944 274.275 321.195 274.16 321.477C274.055 321.749 274.003 322.031 274.003 322.324V327.123H272.796ZM288.232 327.123V321.634C288.232 321.101 288.044 320.672 287.667 320.348C287.291 320.024 286.794 319.862 286.178 319.862C285.665 319.862 285.2 319.967 284.782 320.176C284.364 320.385 283.993 320.698 283.668 321.117L282.884 320.332C283.355 319.799 283.867 319.402 284.421 319.141C284.986 318.879 285.597 318.749 286.256 318.749C286.883 318.749 287.427 318.853 287.887 319.062C288.347 319.271 288.697 319.575 288.937 319.972C289.188 320.369 289.314 320.85 289.314 321.414V327.123H288.232ZM285.409 327.279C284.876 327.279 284.4 327.175 283.982 326.966C283.564 326.757 283.229 326.469 282.978 326.103C282.738 325.727 282.618 325.288 282.618 324.786C282.618 324.378 282.691 324.018 282.837 323.704C282.994 323.39 283.219 323.129 283.512 322.92C283.804 322.711 284.176 322.554 284.625 322.449C285.075 322.334 285.587 322.277 286.162 322.277H288.765L288.671 323.265H286.005C285.639 323.265 285.315 323.296 285.033 323.359C284.761 323.422 284.526 323.521 284.327 323.657C284.139 323.782 283.993 323.939 283.888 324.127C283.794 324.305 283.747 324.519 283.747 324.77C283.747 325.063 283.82 325.324 283.966 325.554C284.123 325.774 284.327 325.946 284.578 326.072C284.839 326.187 285.132 326.244 285.456 326.244C285.885 326.244 286.287 326.171 286.664 326.025C287.04 325.868 287.375 325.659 287.667 325.398C287.97 325.126 288.211 324.823 288.389 324.488L288.718 325.241C288.488 325.638 288.2 325.994 287.855 326.307C287.51 326.61 287.129 326.851 286.711 327.028C286.303 327.196 285.869 327.279 285.409 327.279ZM291.418 327.123V318.89H292.609V320.646L292.374 320.787C292.489 320.421 292.698 320.087 293.001 319.784C293.305 319.48 293.671 319.235 294.099 319.047C294.528 318.848 294.972 318.749 295.432 318.749C296.049 318.749 296.566 318.869 296.985 319.109C297.413 319.339 297.737 319.7 297.957 320.191C298.176 320.683 298.286 321.305 298.286 322.057V327.123H297.094V322.136C297.094 321.603 297.016 321.164 296.859 320.819C296.713 320.474 296.488 320.223 296.185 320.066C295.892 319.909 295.521 319.836 295.071 319.846C294.716 319.846 294.387 319.904 294.084 320.019C293.791 320.134 293.535 320.291 293.315 320.489C293.096 320.677 292.923 320.892 292.798 321.132C292.672 321.362 292.609 321.592 292.609 321.822V327.123H292.029C291.935 327.123 291.836 327.123 291.731 327.123C291.627 327.123 291.522 327.123 291.418 327.123ZM300.468 327.123V318.89H301.66V320.646L301.425 320.787C301.54 320.421 301.749 320.087 302.052 319.784C302.355 319.48 302.721 319.235 303.15 319.047C303.578 318.848 304.023 318.749 304.483 318.749C305.1 318.749 305.617 318.869 306.035 319.109C306.464 319.339 306.788 319.7 307.007 320.191C307.227 320.683 307.337 321.305 307.337 322.057V327.123H306.145V322.136C306.145 321.603 306.067 321.164 305.91 320.819C305.763 320.474 305.539 320.223 305.235 320.066C304.943 319.909 304.572 319.836 304.122 319.846C303.767 319.846 303.437 319.904 303.134 320.019C302.841 320.134 302.585 320.291 302.366 320.489C302.146 320.677 301.974 320.892 301.848 321.132C301.723 321.362 301.66 321.592 301.66 321.822V327.123H301.08C300.986 327.123 300.886 327.123 300.782 327.123C300.677 327.123 300.573 327.123 300.468 327.123ZM312.467 327.279C311.861 327.279 311.338 327.154 310.899 326.903C310.46 326.642 310.12 326.271 309.88 325.79C309.65 325.298 309.535 324.697 309.535 323.986V318.89H310.726V323.688C310.726 324.514 310.915 325.147 311.291 325.586C311.678 326.014 312.216 326.229 312.906 326.229C313.241 326.229 313.544 326.171 313.816 326.056C314.098 325.931 314.344 325.769 314.553 325.57C314.762 325.371 314.924 325.152 315.039 324.911C315.164 324.661 315.227 324.41 315.227 324.159V318.89H316.419V327.123H315.243L315.227 325.335L315.462 325.209C315.337 325.586 315.122 325.936 314.819 326.26C314.527 326.574 314.176 326.825 313.769 327.013C313.371 327.191 312.937 327.279 312.467 327.279ZM318.614 327.123V318.89H319.806L319.822 320.756L319.54 320.866C319.665 320.552 319.827 320.27 320.026 320.019C320.224 319.757 320.454 319.538 320.716 319.36C320.987 319.172 321.275 319.026 321.578 318.921C321.892 318.817 322.211 318.764 322.535 318.764C322.995 318.764 323.402 318.843 323.758 319C324.124 319.146 324.422 319.376 324.652 319.69C324.892 320.003 325.065 320.4 325.169 320.881H324.95L325.044 320.615C325.169 320.343 325.331 320.097 325.53 319.878C325.739 319.648 325.974 319.449 326.236 319.282C326.507 319.115 326.79 318.989 327.082 318.905C327.386 318.811 327.683 318.764 327.976 318.764C328.583 318.764 329.09 318.885 329.497 319.125C329.905 319.365 330.213 319.737 330.423 320.238C330.632 320.73 330.736 321.357 330.736 322.12V327.123H329.544V322.167C329.544 321.373 329.382 320.792 329.058 320.427C328.734 320.061 328.253 319.878 327.616 319.878C327.281 319.878 326.967 319.935 326.675 320.05C326.392 320.155 326.147 320.306 325.938 320.505C325.729 320.704 325.566 320.923 325.451 321.164C325.336 321.404 325.279 321.66 325.279 321.932V327.123H324.072V322.152C324.072 321.388 323.909 320.819 323.585 320.442C323.261 320.066 322.796 319.878 322.19 319.878C321.845 319.878 321.526 319.935 321.233 320.05C320.951 320.165 320.7 320.317 320.48 320.505C320.271 320.693 320.109 320.907 319.994 321.148C319.879 321.378 319.822 321.613 319.822 321.854V327.123H318.614ZM334.394 321.226L334.504 319.188L334.613 319.203L332.826 320.348L332.371 319.564L334.284 318.623L334.268 318.749L332.34 317.808L332.81 317.024L334.613 318.184L334.504 318.247L334.394 316.145H335.319L335.194 318.31L335.037 318.215L336.856 317.055L337.311 317.839L335.398 318.78V318.607L337.295 319.548L336.84 320.332L335.037 319.188L335.194 319.203L335.319 321.226H334.394Z" fill="white"/>
<defs>
<linearGradient id="paint0_linear_197_672" x1="296.434" y1="93.2159" x2="296.434" y2="169.162" gradientUnits="userSpaceOnUse">
<stop stop-color="white"/>
<stop offset="1" stop-color="white" stop-opacity="0"/>
</linearGradient>
<linearGradient id="paint1_linear_197_672" x1="83.3085" y1="0.999954" x2="0" y2="0.999954" gradientUnits="userSpaceOnUse">
<stop stop-color="white"/>
<stop offset="1" stop-color="white" stop-opacity="0"/>
</linearGradient>
<linearGradient id="paint2_linear_197_672" x1="295.434" y1="137.108" x2="295.434" y2="431.138" gradientUnits="userSpaceOnUse">
<stop stop-color="#1E86FF"/>
<stop offset="1" stop-color="#1E86FF" stop-opacity="0"/>
</linearGradient>
</defs>
</svg>
