<svg width="273" height="204" viewBox="0 0 273 204" fill="none" xmlns="http://www.w3.org/2000/svg">
<path d="M7.29343 13.5L5.88943 12.114V11.34H8.17543C8.64343 11.34 9.00943 11.19 9.27343 10.89C9.54943 10.578 9.68743 10.182 9.68743 9.702C9.68743 9.366 9.61543 9.084 9.47143 8.856C9.32743 8.616 9.11743 8.43 8.84143 8.298C8.57743 8.166 8.25343 8.1 7.86943 8.1H4.84543V5.508H14.3494V7.686H10.3714L8.85943 6.246C9.54343 6.366 10.1794 6.564 10.7674 6.84C11.3554 7.116 11.8234 7.482 12.1714 7.938C12.5314 8.394 12.7114 8.958 12.7114 9.63C12.7114 10.182 12.6034 10.692 12.3874 11.16C12.1714 11.628 11.8654 12.036 11.4694 12.384C11.0854 12.732 10.6294 13.008 10.1014 13.212C9.58543 13.404 9.02143 13.5 8.40943 13.5H7.29343ZM9.84943 18.108L5.94343 12.132L9.09343 11.682L13.3414 18.126L9.84943 18.108ZM7.45543 10.368V9.018H14.3854V10.368H7.45543ZM19.8328 18.18C18.8608 18.18 18.0148 17.97 17.2948 17.55C16.5748 17.13 15.9028 16.41 15.2788 15.39L17.2768 14.148C17.5408 14.568 17.8168 14.91 18.1048 15.174C18.3928 15.426 18.6868 15.612 18.9868 15.732C19.2988 15.852 19.6228 15.912 19.9588 15.912C20.3188 15.912 20.6488 15.828 20.9488 15.66C21.2608 15.492 21.5068 15.258 21.6868 14.958C21.8788 14.646 21.9748 14.292 21.9748 13.896C21.9748 13.5 21.8968 13.164 21.7408 12.888C21.5848 12.612 21.3628 12.402 21.0748 12.258C20.7868 12.114 20.4328 12.042 20.0128 12.042C19.8328 12.042 19.6348 12.066 19.4188 12.114C19.2148 12.15 18.9928 12.204 18.7528 12.276C18.5128 12.348 18.2668 12.438 18.0148 12.546L17.3848 10.872L20.6968 7.236L21.3808 7.722L16.1068 7.668V5.328H23.6668L24.1708 6.318L20.0308 10.8L19.4188 10.08C19.5148 10.044 19.6708 10.008 19.8868 9.972C20.1028 9.924 20.3008 9.9 20.4808 9.9C21.0208 9.9 21.5308 10.002 22.0108 10.206C22.4908 10.398 22.9168 10.674 23.2888 11.034C23.6608 11.394 23.9488 11.814 24.1528 12.294C24.3688 12.774 24.4768 13.29 24.4768 13.842C24.4768 14.67 24.2668 15.414 23.8468 16.074C23.4388 16.722 22.8808 17.238 22.1728 17.622C21.4768 17.994 20.6968 18.18 19.8328 18.18ZM26.4449 18L25.8329 16.506L29.5229 12.384C29.7389 12.168 29.9609 11.916 30.1889 11.628C30.4289 11.34 30.6569 11.046 30.8729 10.746C31.0889 10.434 31.2629 10.134 31.3949 9.846C31.5269 9.558 31.5929 9.294 31.5929 9.054C31.5929 8.766 31.5329 8.52 31.4129 8.316C31.3049 8.1 31.1369 7.938 30.9089 7.83C30.6809 7.71 30.3989 7.65 30.0629 7.65C29.7629 7.65 29.4749 7.734 29.1989 7.902C28.9229 8.058 28.6649 8.292 28.4249 8.604C28.1849 8.916 27.9749 9.3 27.7949 9.756L25.7789 8.604C26.0189 7.908 26.3609 7.302 26.8049 6.786C27.2489 6.258 27.7769 5.85 28.3889 5.562C29.0009 5.274 29.6549 5.136 30.3509 5.148C31.0829 5.148 31.7369 5.304 32.3129 5.616C32.9009 5.916 33.3629 6.336 33.6989 6.876C34.0349 7.416 34.2029 8.04 34.2029 8.748C34.2029 9.084 34.1549 9.432 34.0589 9.792C33.9749 10.14 33.8309 10.512 33.6269 10.908C33.4229 11.292 33.1589 11.706 32.8349 12.15C32.5109 12.594 32.1209 13.068 31.6649 13.572L28.8389 16.65L28.4789 15.57H34.7069V18H26.4449ZM37.2242 18.198C36.7682 18.198 36.4142 18.066 36.1622 17.802C35.9102 17.538 35.7842 17.16 35.7842 16.668C35.7842 16.212 35.9162 15.84 36.1802 15.552C36.4442 15.264 36.7922 15.12 37.2242 15.12C37.6922 15.12 38.0522 15.258 38.3042 15.534C38.5562 15.798 38.6822 16.176 38.6822 16.668C38.6822 17.124 38.5442 17.496 38.2682 17.784C38.0042 18.06 37.6562 18.198 37.2242 18.198ZM45.2824 18V7.866L46.4884 7.938L42.1324 13.248L41.8444 12.816H49.9804V15.102H40.5124L39.4144 12.978L45.7144 5.328H47.8744V18H45.2824ZM57.7947 18V5.4H60.4947V15.57H66.2007V18H57.7947ZM73.2731 18V12.042C73.2731 11.538 73.1171 11.154 72.8051 10.89C72.5051 10.614 72.0971 10.476 71.5811 10.476C71.0891 10.476 70.6511 10.572 70.2671 10.764C69.8831 10.956 69.5231 11.256 69.1871 11.664L67.6211 10.152C68.1971 9.552 68.8391 9.09 69.5471 8.766C70.2671 8.442 71.0471 8.28 71.8871 8.28C72.6551 8.28 73.3211 8.4 73.8851 8.64C74.4611 8.88 74.9051 9.24 75.2171 9.72C75.5291 10.2 75.6851 10.806 75.6851 11.538V18H73.2731ZM70.6631 18.18C70.0631 18.18 69.5171 18.06 69.0251 17.82C68.5451 17.58 68.1611 17.25 67.8731 16.83C67.5971 16.398 67.4591 15.894 67.4591 15.318C67.4591 14.826 67.5491 14.394 67.7291 14.022C67.9091 13.638 68.1731 13.326 68.5211 13.086C68.8811 12.834 69.3251 12.642 69.8531 12.51C70.3931 12.378 71.0171 12.312 71.7251 12.312H74.5331L74.3711 14.022H71.6891C71.4011 14.022 71.1431 14.046 70.9151 14.094C70.6991 14.142 70.5131 14.22 70.3571 14.328C70.2131 14.436 70.0991 14.562 70.0151 14.706C69.9431 14.85 69.9071 15.018 69.9071 15.21C69.9071 15.414 69.9611 15.594 70.0691 15.75C70.1771 15.906 70.3211 16.026 70.5011 16.11C70.6931 16.194 70.9091 16.236 71.1491 16.236C71.4971 16.236 71.8271 16.176 72.1391 16.056C72.4631 15.936 72.7511 15.768 73.0031 15.552C73.2551 15.336 73.4531 15.09 73.5971 14.814L74.0831 16.092C73.8311 16.5 73.5251 16.86 73.1651 17.172C72.8051 17.484 72.4151 17.73 71.9951 17.91C71.5751 18.09 71.1311 18.18 70.6631 18.18ZM80.3955 15.138L79.6935 13.014L84.1575 8.478H87.5235L80.3955 15.138ZM77.9835 18V4.68H80.5395V18H77.9835ZM84.4275 18L81.0075 13.734L82.8255 12.276L87.5055 18H84.4275ZM88.8292 18V4.68H91.3672V10.422L90.8632 10.638C90.9832 10.206 91.2172 9.816 91.5652 9.468C91.9132 9.108 92.3272 8.82 92.8072 8.604C93.2872 8.388 93.7852 8.28 94.3012 8.28C95.0212 8.28 95.6212 8.424 96.1012 8.712C96.5932 9 96.9592 9.438 97.1992 10.026C97.4512 10.602 97.5772 11.322 97.5772 12.186V18H95.0212V12.366C95.0212 11.934 94.9612 11.574 94.8412 11.286C94.7212 10.998 94.5412 10.788 94.3012 10.656C94.0612 10.524 93.7552 10.464 93.3832 10.476C93.0952 10.476 92.8312 10.524 92.5912 10.62C92.3512 10.704 92.1352 10.83 91.9432 10.998C91.7632 11.166 91.6252 11.358 91.5292 11.574C91.4332 11.79 91.3852 12.03 91.3852 12.294V18H90.1072C89.8432 18 89.6032 18 89.3872 18C89.1712 18 88.9852 18 88.8292 18ZM103.23 18.18C102.354 18.18 101.568 18.036 100.872 17.748C100.188 17.46 99.6305 17.052 99.1985 16.524L100.8 15.156C101.172 15.552 101.58 15.84 102.024 16.02C102.48 16.188 102.942 16.272 103.41 16.272C103.578 16.272 103.734 16.254 103.878 16.218C104.022 16.17 104.148 16.11 104.256 16.038C104.364 15.954 104.442 15.858 104.49 15.75C104.55 15.642 104.58 15.516 104.58 15.372C104.58 15.108 104.472 14.904 104.256 14.76C104.16 14.688 103.98 14.61 103.716 14.526C103.464 14.43 103.14 14.328 102.744 14.22C102.132 14.064 101.616 13.884 101.196 13.68C100.776 13.464 100.434 13.218 100.17 12.942C99.9545 12.714 99.7865 12.45 99.6665 12.15C99.5585 11.85 99.5045 11.52 99.5045 11.16C99.5045 10.584 99.6725 10.08 100.008 9.648C100.344 9.216 100.788 8.88 101.34 8.64C101.904 8.4 102.516 8.28 103.176 8.28C103.668 8.28 104.142 8.34 104.598 8.46C105.066 8.58 105.498 8.754 105.894 8.982C106.302 9.198 106.656 9.456 106.956 9.756L105.588 11.286C105.372 11.07 105.126 10.884 104.85 10.728C104.574 10.56 104.298 10.428 104.022 10.332C103.746 10.224 103.494 10.17 103.266 10.17C103.062 10.17 102.876 10.188 102.708 10.224C102.552 10.26 102.42 10.32 102.312 10.404C102.204 10.476 102.12 10.566 102.06 10.674C102.012 10.782 101.988 10.902 101.988 11.034C101.988 11.166 102.018 11.292 102.078 11.412C102.15 11.52 102.246 11.622 102.366 11.718C102.486 11.79 102.678 11.874 102.942 11.97C103.218 12.066 103.572 12.174 104.004 12.294C104.58 12.45 105.066 12.624 105.462 12.816C105.858 13.008 106.176 13.23 106.416 13.482C106.632 13.698 106.782 13.95 106.866 14.238C106.962 14.514 107.01 14.814 107.01 15.138C107.01 15.726 106.842 16.254 106.506 16.722C106.182 17.178 105.732 17.538 105.156 17.802C104.592 18.054 103.95 18.18 103.23 18.18ZM8.38292 44.014V30.55H9.75092L9.76892 33.052L9.51692 32.962C9.62492 32.506 9.85292 32.086 10.2009 31.702C10.5609 31.318 10.9929 31.006 11.4969 30.766C12.0129 30.526 12.5469 30.406 13.0989 30.406C13.9629 30.406 14.7309 30.616 15.4029 31.036C16.0749 31.456 16.6029 32.032 16.9869 32.764C17.3709 33.496 17.5629 34.33 17.5629 35.266C17.5629 36.202 17.3709 37.042 16.9869 37.786C16.6029 38.518 16.0749 39.1 15.4029 39.532C14.7429 39.952 13.9989 40.162 13.1709 40.162C12.5829 40.162 12.0189 40.042 11.4789 39.802C10.9509 39.562 10.4949 39.244 10.1109 38.848C9.73892 38.452 9.51092 38.026 9.42692 37.57L9.76892 37.426V44.014H8.38292ZM12.9549 38.902C13.5909 38.902 14.1549 38.746 14.6469 38.434C15.1509 38.122 15.5409 37.69 15.8169 37.138C16.1049 36.586 16.2489 35.962 16.2489 35.266C16.2489 34.582 16.1049 33.97 15.8169 33.43C15.5409 32.89 15.1569 32.464 14.6649 32.152C14.1729 31.84 13.6029 31.684 12.9549 31.684C12.3309 31.684 11.7729 31.84 11.2809 32.152C10.8009 32.452 10.4169 32.872 10.1289 33.412C9.85292 33.952 9.71492 34.576 9.71492 35.284C9.71492 35.98 9.85292 36.604 10.1289 37.156C10.4169 37.696 10.8009 38.122 11.2809 38.434C11.7729 38.746 12.3309 38.902 12.9549 38.902ZM23.8646 40.18C22.9166 40.18 22.0766 39.976 21.3446 39.568C20.6126 39.148 20.0366 38.572 19.6166 37.84C19.2086 37.108 19.0046 36.274 19.0046 35.338C19.0046 34.606 19.1186 33.94 19.3466 33.34C19.5866 32.728 19.9106 32.206 20.3186 31.774C20.7386 31.33 21.2366 30.988 21.8126 30.748C22.3886 30.508 23.0186 30.388 23.7026 30.388C24.3026 30.388 24.8606 30.496 25.3766 30.712C25.9046 30.928 26.3606 31.24 26.7446 31.648C27.1286 32.044 27.4226 32.518 27.6266 33.07C27.8306 33.61 27.9206 34.21 27.8966 34.87L27.8786 35.554H19.9946L19.7066 34.438H26.7446L26.4926 34.744L26.5106 34.294C26.4866 33.778 26.3426 33.322 26.0786 32.926C25.8146 32.53 25.4726 32.218 25.0526 31.99C24.6446 31.762 24.1946 31.648 23.7026 31.648C23.0066 31.648 22.4066 31.798 21.9026 32.098C21.3986 32.386 21.0146 32.8 20.7506 33.34C20.4986 33.868 20.3666 34.504 20.3546 35.248C20.3666 35.992 20.5226 36.64 20.8226 37.192C21.1226 37.732 21.5426 38.158 22.0826 38.47C22.6346 38.77 23.2706 38.92 23.9906 38.92C24.5066 38.92 24.9866 38.836 25.4306 38.668C25.8746 38.488 26.3246 38.194 26.7806 37.786L27.4646 38.758C27.1766 39.046 26.8346 39.298 26.4386 39.514C26.0546 39.718 25.6406 39.88 25.1966 40C24.7526 40.12 24.3086 40.18 23.8646 40.18ZM29.8634 40V30.55H31.2314L31.2494 33.286L31.0874 32.818C31.2074 32.386 31.4114 31.984 31.6994 31.612C31.9994 31.24 32.3594 30.946 32.7794 30.73C33.1994 30.502 33.6614 30.388 34.1654 30.388C34.3694 30.388 34.5614 30.406 34.7414 30.442C34.9214 30.466 35.0714 30.502 35.1914 30.55L34.8314 32.044C34.6634 31.984 34.4894 31.936 34.3094 31.9C34.1414 31.852 33.9794 31.828 33.8234 31.828C33.4514 31.828 33.1034 31.906 32.7794 32.062C32.4674 32.206 32.1974 32.404 31.9694 32.656C31.7414 32.908 31.5614 33.196 31.4294 33.52C31.3094 33.832 31.2494 34.156 31.2494 34.492V40H29.8634ZM47.5816 40V33.7C47.5816 33.088 47.3656 32.596 46.9336 32.224C46.5016 31.852 45.9316 31.666 45.2236 31.666C44.6356 31.666 44.1016 31.786 43.6216 32.026C43.1416 32.266 42.7156 32.626 42.3436 33.106L41.4436 32.206C41.9836 31.594 42.5716 31.138 43.2076 30.838C43.8556 30.538 44.5576 30.388 45.3136 30.388C46.0336 30.388 46.6576 30.508 47.1856 30.748C47.7136 30.988 48.1156 31.336 48.3916 31.792C48.6796 32.248 48.8236 32.8 48.8236 33.448V40H47.5816ZM44.3416 40.18C43.7296 40.18 43.1836 40.06 42.7036 39.82C42.2236 39.58 41.8396 39.25 41.5516 38.83C41.2756 38.398 41.1376 37.894 41.1376 37.318C41.1376 36.85 41.2216 36.436 41.3896 36.076C41.5696 35.716 41.8276 35.416 42.1636 35.176C42.4996 34.936 42.9256 34.756 43.4416 34.636C43.9576 34.504 44.5456 34.438 45.2056 34.438H48.1936L48.0856 35.572H45.0256C44.6056 35.572 44.2336 35.608 43.9096 35.68C43.5976 35.752 43.3276 35.866 43.0996 36.022C42.8836 36.166 42.7156 36.346 42.5956 36.562C42.4876 36.766 42.4336 37.012 42.4336 37.3C42.4336 37.636 42.5176 37.936 42.6856 38.2C42.8656 38.452 43.0996 38.65 43.3876 38.794C43.6876 38.926 44.0236 38.992 44.3956 38.992C44.8876 38.992 45.3496 38.908 45.7816 38.74C46.2136 38.56 46.5976 38.32 46.9336 38.02C47.2816 37.708 47.5576 37.36 47.7616 36.976L48.1396 37.84C47.8756 38.296 47.5456 38.704 47.1496 39.064C46.7536 39.412 46.3156 39.688 45.8356 39.892C45.3676 40.084 44.8696 40.18 44.3416 40.18ZM51.2384 40V30.55H52.6064V32.566L52.3364 32.728C52.4684 32.308 52.7084 31.924 53.0564 31.576C53.4044 31.228 53.8244 30.946 54.3164 30.73C54.8084 30.502 55.3184 30.388 55.8464 30.388C56.5544 30.388 57.1484 30.526 57.6284 30.802C58.1204 31.066 58.4924 31.48 58.7444 32.044C58.9964 32.608 59.1224 33.322 59.1224 34.186V40H57.7544V34.276C57.7544 33.664 57.6644 33.16 57.4844 32.764C57.3164 32.368 57.0584 32.08 56.7104 31.9C56.3744 31.72 55.9484 31.636 55.4324 31.648C55.0244 31.648 54.6464 31.714 54.2984 31.846C53.9624 31.978 53.6684 32.158 53.4164 32.386C53.1644 32.602 52.9664 32.848 52.8224 33.124C52.6784 33.388 52.6064 33.652 52.6064 33.916V40H51.9404C51.8324 40 51.7184 40 51.5984 40C51.4784 40 51.3584 40 51.2384 40ZM61.6271 40V30.55H62.9951V32.566L62.7251 32.728C62.8571 32.308 63.0971 31.924 63.4451 31.576C63.7931 31.228 64.2131 30.946 64.7051 30.73C65.1971 30.502 65.7071 30.388 66.2351 30.388C66.9431 30.388 67.5371 30.526 68.0171 30.802C68.5091 31.066 68.8811 31.48 69.1331 32.044C69.3851 32.608 69.5111 33.322 69.5111 34.186V40H68.1431V34.276C68.1431 33.664 68.0531 33.16 67.8731 32.764C67.7051 32.368 67.4471 32.08 67.0991 31.9C66.7631 31.72 66.3371 31.636 65.8211 31.648C65.4131 31.648 65.0351 31.714 64.6871 31.846C64.3511 31.978 64.0571 32.158 63.8051 32.386C63.5531 32.602 63.3551 32.848 63.2111 33.124C63.0671 33.388 62.9951 33.652 62.9951 33.916V40H62.3291C62.2211 40 62.1071 40 61.9871 40C61.8671 40 61.7471 40 61.6271 40ZM75.3997 40.18C74.7037 40.18 74.1037 40.036 73.5997 39.748C73.0957 39.448 72.7057 39.022 72.4297 38.47C72.1657 37.906 72.0337 37.216 72.0337 36.4V30.55H73.4017V36.058C73.4017 37.006 73.6177 37.732 74.0497 38.236C74.4937 38.728 75.1117 38.974 75.9037 38.974C76.2877 38.974 76.6357 38.908 76.9477 38.776C77.2717 38.632 77.5537 38.446 77.7937 38.218C78.0337 37.99 78.2197 37.738 78.3517 37.462C78.4957 37.174 78.5677 36.886 78.5677 36.598V30.55H79.9357V40H78.5857L78.5677 37.948L78.8377 37.804C78.6937 38.236 78.4477 38.638 78.0997 39.01C77.7637 39.37 77.3617 39.658 76.8937 39.874C76.4377 40.078 75.9397 40.18 75.3997 40.18ZM82.4559 40V30.55H83.8239L83.8419 32.692L83.5179 32.818C83.6619 32.458 83.8479 32.134 84.0759 31.846C84.3039 31.546 84.5679 31.294 84.8679 31.09C85.1799 30.874 85.5099 30.706 85.8579 30.586C86.2179 30.466 86.5839 30.406 86.9559 30.406C87.4839 30.406 87.9519 30.496 88.3599 30.676C88.7799 30.844 89.1219 31.108 89.3859 31.468C89.6619 31.828 89.8599 32.284 89.9799 32.836H89.7279L89.8359 32.53C89.9799 32.218 90.1659 31.936 90.3939 31.684C90.6339 31.42 90.9039 31.192 91.2039 31C91.5159 30.808 91.8399 30.664 92.1759 30.568C92.5239 30.46 92.8659 30.406 93.2019 30.406C93.8979 30.406 94.4799 30.544 94.9479 30.82C95.4159 31.096 95.7699 31.522 96.0099 32.098C96.2499 32.662 96.3699 33.382 96.3699 34.258V40H95.0019V34.312C95.0019 33.4 94.8159 32.734 94.4439 32.314C94.0719 31.894 93.5199 31.684 92.7879 31.684C92.4039 31.684 92.0439 31.75 91.7079 31.882C91.3839 32.002 91.1019 32.176 90.8619 32.404C90.6219 32.632 90.4359 32.884 90.3039 33.16C90.1719 33.436 90.1059 33.73 90.1059 34.042V40H88.7199V34.294C88.7199 33.418 88.5339 32.764 88.1619 32.332C87.7899 31.9 87.2559 31.684 86.5599 31.684C86.1639 31.684 85.7979 31.75 85.4619 31.882C85.1379 32.014 84.8499 32.188 84.5979 32.404C84.3579 32.62 84.1719 32.866 84.0399 33.142C83.9079 33.406 83.8419 33.676 83.8419 33.952V40H82.4559ZM100.568 33.232L100.694 30.892L100.82 30.91L98.7684 32.224L98.2464 31.324L100.442 30.244L100.424 30.388L98.2104 29.308L98.7504 28.408L100.82 29.74L100.694 29.812L100.568 27.4H101.63L101.486 29.884L101.306 29.776L103.394 28.444L103.916 29.344L101.72 30.424V30.226L103.898 31.306L103.376 32.206L101.306 30.892L101.486 30.91L101.63 33.232H100.568Z" fill="white"/>
<line x1="154.367" y1="42.2223" x2="121.286" y2="9.14174" stroke="url(#paint0_linear_441_236)" stroke-width="1.34165"/>
<path d="M10.1692 196.097L9.37719 195.257V194.717H10.8292C11.1492 194.717 11.4052 194.609 11.5972 194.393C11.7972 194.169 11.8972 193.885 11.8972 193.541C11.8972 193.301 11.8412 193.093 11.7292 192.917C11.6252 192.741 11.4732 192.605 11.2732 192.509C11.0812 192.413 10.8492 192.365 10.5772 192.365H8.70519V190.793H14.6812V192.173H12.1612L11.0932 191.285C11.5572 191.333 11.9852 191.453 12.3772 191.645C12.7772 191.829 13.0932 192.077 13.3252 192.389C13.5652 192.701 13.6852 193.077 13.6852 193.517C13.6852 193.877 13.6132 194.213 13.4692 194.525C13.3252 194.837 13.1252 195.109 12.8692 195.341C12.6212 195.573 12.3252 195.757 11.9812 195.893C11.6452 196.029 11.2812 196.097 10.8892 196.097H10.1692ZM12.0532 199.193L9.41319 195.269L11.2612 194.969L14.1292 199.205L12.0532 199.193ZM10.5652 194.021V193.061H14.7172V194.021H10.5652ZM18.3544 199.229C17.7464 199.229 17.1944 199.105 16.6984 198.857C16.2104 198.601 15.8024 198.233 15.4744 197.753L16.4584 196.673C16.8024 197.057 17.1104 197.317 17.3824 197.453C17.6624 197.589 17.9704 197.657 18.3064 197.657C18.5864 197.657 18.8344 197.601 19.0504 197.489C19.2744 197.369 19.4504 197.205 19.5784 196.997C19.7064 196.789 19.7704 196.561 19.7704 196.313C19.7704 196.049 19.7064 195.813 19.5784 195.605C19.4504 195.389 19.2784 195.221 19.0624 195.101C18.8544 194.981 18.6144 194.921 18.3424 194.921C18.1744 194.921 18.0144 194.933 17.8624 194.957C17.7184 194.981 17.5544 195.033 17.3704 195.113C17.1864 195.185 16.9584 195.293 16.6864 195.437L15.8704 194.345L16.3864 190.697H21.1144V192.257H17.3104L17.7424 191.729L17.3464 194.369L16.7824 194.093C16.9024 193.981 17.0664 193.881 17.2744 193.793C17.4904 193.697 17.7184 193.621 17.9584 193.565C18.2064 193.501 18.4504 193.469 18.6904 193.469C19.2184 193.469 19.6864 193.589 20.0944 193.829C20.5104 194.069 20.8384 194.401 21.0784 194.825C21.3184 195.249 21.4384 195.737 21.4384 196.289C21.4384 196.841 21.3024 197.341 21.0304 197.789C20.7584 198.229 20.3904 198.581 19.9264 198.845C19.4624 199.101 18.9384 199.229 18.3544 199.229ZM25.9977 199.265C25.2857 199.265 24.6737 199.093 24.1617 198.749C23.6577 198.397 23.2697 197.901 22.9977 197.261C22.7337 196.613 22.6017 195.841 22.6017 194.945C22.6017 194.049 22.7337 193.281 22.9977 192.641C23.2697 191.993 23.6577 191.497 24.1617 191.153C24.6737 190.801 25.2857 190.625 25.9977 190.625C26.7097 190.625 27.3177 190.801 27.8217 191.153C28.3337 191.497 28.7217 191.993 28.9857 192.641C29.2577 193.281 29.3937 194.049 29.3937 194.945C29.3937 195.841 29.2577 196.613 28.9857 197.261C28.7217 197.901 28.3337 198.397 27.8217 198.749C27.3177 199.093 26.7097 199.265 25.9977 199.265ZM25.9977 197.717C26.5337 197.717 26.9457 197.477 27.2337 196.997C27.5297 196.509 27.6777 195.825 27.6777 194.945C27.6777 194.041 27.5297 193.345 27.2337 192.857C26.9457 192.369 26.5337 192.125 25.9977 192.125C25.4617 192.125 25.0457 192.369 24.7497 192.857C24.4617 193.345 24.3177 194.041 24.3177 194.945C24.3177 195.825 24.4617 196.509 24.7497 196.997C25.0457 197.477 25.4617 197.717 25.9977 197.717ZM33.8023 199.265C33.0903 199.265 32.4783 199.093 31.9663 198.749C31.4623 198.397 31.0743 197.901 30.8023 197.261C30.5383 196.613 30.4063 195.841 30.4063 194.945C30.4063 194.049 30.5383 193.281 30.8023 192.641C31.0743 191.993 31.4623 191.497 31.9663 191.153C32.4783 190.801 33.0903 190.625 33.8023 190.625C34.5143 190.625 35.1223 190.801 35.6263 191.153C36.1383 191.497 36.5263 191.993 36.7903 192.641C37.0623 193.281 37.1983 194.049 37.1983 194.945C37.1983 195.841 37.0623 196.613 36.7903 197.261C36.5263 197.901 36.1383 198.397 35.6263 198.749C35.1223 199.093 34.5143 199.265 33.8023 199.265ZM33.8023 197.717C34.3383 197.717 34.7503 197.477 35.0383 196.997C35.3343 196.509 35.4823 195.825 35.4823 194.945C35.4823 194.041 35.3343 193.345 35.0383 192.857C34.7503 192.369 34.3383 192.125 33.8023 192.125C33.2663 192.125 32.8503 192.369 32.5543 192.857C32.2663 193.345 32.1223 194.041 32.1223 194.945C32.1223 195.825 32.2663 196.509 32.5543 196.997C32.8503 197.477 33.2663 197.717 33.8023 197.717ZM41.607 199.265C40.895 199.265 40.283 199.093 39.771 198.749C39.267 198.397 38.879 197.901 38.607 197.261C38.343 196.613 38.211 195.841 38.211 194.945C38.211 194.049 38.343 193.281 38.607 192.641C38.879 191.993 39.267 191.497 39.771 191.153C40.283 190.801 40.895 190.625 41.607 190.625C42.319 190.625 42.927 190.801 43.431 191.153C43.943 191.497 44.331 191.993 44.595 192.641C44.867 193.281 45.003 194.049 45.003 194.945C45.003 195.841 44.867 196.613 44.595 197.261C44.331 197.901 43.943 198.397 43.431 198.749C42.927 199.093 42.319 199.265 41.607 199.265ZM41.607 197.717C42.143 197.717 42.555 197.477 42.843 196.997C43.139 196.509 43.287 195.825 43.287 194.945C43.287 194.041 43.139 193.345 42.843 192.857C42.555 192.369 42.143 192.125 41.607 192.125C41.071 192.125 40.655 192.369 40.359 192.857C40.071 193.345 39.927 194.041 39.927 194.945C39.927 195.825 40.071 196.509 40.359 196.997C40.655 197.477 41.071 197.717 41.607 197.717ZM50.0317 201.821V192.845H50.9437L50.9557 194.513L50.7877 194.453C50.8597 194.149 51.0117 193.869 51.2437 193.613C51.4837 193.357 51.7717 193.149 52.1077 192.989C52.4517 192.829 52.8077 192.749 53.1757 192.749C53.7517 192.749 54.2637 192.889 54.7117 193.169C55.1597 193.449 55.5117 193.833 55.7677 194.321C56.0237 194.809 56.1517 195.365 56.1517 195.989C56.1517 196.613 56.0237 197.173 55.7677 197.669C55.5117 198.157 55.1597 198.545 54.7117 198.833C54.2717 199.113 53.7757 199.253 53.2237 199.253C52.8317 199.253 52.4557 199.173 52.0957 199.013C51.7437 198.853 51.4397 198.641 51.1837 198.377C50.9357 198.113 50.7837 197.829 50.7277 197.525L50.9557 197.429V201.821H50.0317ZM53.0797 198.413C53.5037 198.413 53.8797 198.309 54.2077 198.101C54.5437 197.893 54.8037 197.605 54.9877 197.237C55.1797 196.869 55.2757 196.453 55.2757 195.989C55.2757 195.533 55.1797 195.125 54.9877 194.765C54.8037 194.405 54.5477 194.121 54.2197 193.913C53.8917 193.705 53.5117 193.601 53.0797 193.601C52.6637 193.601 52.2917 193.705 51.9637 193.913C51.6437 194.113 51.3877 194.393 51.1957 194.753C51.0117 195.113 50.9197 195.529 50.9197 196.001C50.9197 196.465 51.0117 196.881 51.1957 197.249C51.3877 197.609 51.6437 197.893 51.9637 198.101C52.2917 198.309 52.6637 198.413 53.0797 198.413ZM60.3528 199.265C59.7208 199.265 59.1608 199.129 58.6728 198.857C58.1848 198.577 57.8008 198.193 57.5208 197.705C57.2488 197.217 57.1128 196.661 57.1128 196.037C57.1128 195.549 57.1888 195.105 57.3408 194.705C57.5008 194.297 57.7168 193.949 57.9888 193.661C58.2688 193.365 58.6008 193.137 58.9848 192.977C59.3688 192.817 59.7888 192.737 60.2448 192.737C60.6448 192.737 61.0168 192.809 61.3608 192.953C61.7128 193.097 62.0168 193.305 62.2728 193.577C62.5288 193.841 62.7248 194.157 62.8608 194.525C62.9968 194.885 63.0568 195.285 63.0408 195.725L63.0288 196.181H57.7728L57.5808 195.437H62.2728L62.1048 195.641L62.1168 195.341C62.1008 194.997 62.0048 194.693 61.8288 194.429C61.6528 194.165 61.4248 193.957 61.1448 193.805C60.8728 193.653 60.5728 193.577 60.2448 193.577C59.7808 193.577 59.3808 193.677 59.0448 193.877C58.7088 194.069 58.4528 194.345 58.2768 194.705C58.1088 195.057 58.0208 195.481 58.0128 195.977C58.0208 196.473 58.1248 196.905 58.3248 197.273C58.5248 197.633 58.8048 197.917 59.1648 198.125C59.5328 198.325 59.9568 198.425 60.4368 198.425C60.7808 198.425 61.1008 198.369 61.3968 198.257C61.6928 198.137 61.9928 197.941 62.2968 197.669L62.7528 198.317C62.5608 198.509 62.3328 198.677 62.0688 198.821C61.8128 198.957 61.5368 199.065 61.2408 199.145C60.9448 199.225 60.6488 199.265 60.3528 199.265ZM64.352 199.145V192.845H65.264L65.276 194.669L65.168 194.357C65.248 194.069 65.384 193.801 65.576 193.553C65.776 193.305 66.016 193.109 66.296 192.965C66.576 192.813 66.884 192.737 67.22 192.737C67.356 192.737 67.484 192.749 67.604 192.773C67.724 192.789 67.824 192.813 67.904 192.845L67.664 193.841C67.552 193.801 67.436 193.769 67.316 193.745C67.204 193.713 67.096 193.697 66.992 193.697C66.744 193.697 66.512 193.749 66.296 193.853C66.088 193.949 65.908 194.081 65.756 194.249C65.604 194.417 65.484 194.609 65.396 194.825C65.316 195.033 65.276 195.249 65.276 195.473V199.145H64.352ZM74.2921 199.265C73.7641 199.265 73.2881 199.173 72.8641 198.989C72.4401 198.797 72.0961 198.525 71.8321 198.173L72.4561 197.633C72.6881 197.921 72.9641 198.137 73.2841 198.281C73.6041 198.425 73.9681 198.497 74.3761 198.497C74.5841 198.497 74.7681 198.473 74.9281 198.425C75.0881 198.369 75.2241 198.297 75.3361 198.209C75.4481 198.113 75.5281 198.005 75.5761 197.885C75.6321 197.757 75.6601 197.621 75.6601 197.477C75.6601 197.213 75.5561 197.001 75.3481 196.841C75.2361 196.761 75.0801 196.685 74.8801 196.613C74.6881 196.533 74.4521 196.457 74.1721 196.385C73.7401 196.281 73.3761 196.161 73.0801 196.025C72.7921 195.881 72.5641 195.717 72.3961 195.533C72.2681 195.389 72.1721 195.233 72.1081 195.065C72.0441 194.897 72.0121 194.705 72.0121 194.489C72.0121 194.145 72.1081 193.841 72.3001 193.577C72.4921 193.313 72.7521 193.109 73.0801 192.965C73.4161 192.813 73.7961 192.737 74.2201 192.737C74.5081 192.737 74.7921 192.777 75.0721 192.857C75.3601 192.937 75.6241 193.053 75.8641 193.205C76.1041 193.357 76.3121 193.541 76.4881 193.757L75.9481 194.333C75.7881 194.165 75.6121 194.021 75.4201 193.901C75.2361 193.773 75.0441 193.677 74.8441 193.613C74.6441 193.541 74.4481 193.505 74.2561 193.505C74.0481 193.505 73.8601 193.529 73.6921 193.577C73.5241 193.617 73.3801 193.681 73.2601 193.769C73.1481 193.849 73.0641 193.949 73.0081 194.069C72.9521 194.181 72.9241 194.313 72.9241 194.465C72.9321 194.577 72.9601 194.689 73.0081 194.801C73.0561 194.905 73.1241 194.993 73.2121 195.065C73.3241 195.153 73.4841 195.241 73.6921 195.329C73.9001 195.409 74.1521 195.481 74.4481 195.545C74.8321 195.641 75.1561 195.749 75.4201 195.869C75.6841 195.981 75.8961 196.117 76.0561 196.277C76.2241 196.421 76.3441 196.589 76.4161 196.781C76.4881 196.973 76.5241 197.193 76.5241 197.441C76.5241 197.801 76.4281 198.121 76.2361 198.401C76.0441 198.673 75.7801 198.885 75.4441 199.037C75.1081 199.189 74.7241 199.265 74.2921 199.265ZM78.8223 199.145V191.237H79.7343V199.145H78.8223ZM77.3703 193.733V192.845H81.3063V193.733H77.3703ZM84.6549 199.265C84.1909 199.265 83.7909 199.169 83.4549 198.977C83.1189 198.777 82.8589 198.493 82.6749 198.125C82.4989 197.749 82.4109 197.289 82.4109 196.745V192.845H83.3229V196.517C83.3229 197.149 83.4669 197.633 83.7549 197.969C84.0509 198.297 84.4629 198.461 84.9909 198.461C85.2469 198.461 85.4789 198.417 85.6869 198.329C85.9029 198.233 86.0909 198.109 86.2509 197.957C86.4109 197.805 86.5349 197.637 86.6229 197.453C86.7189 197.261 86.7669 197.069 86.7669 196.877V192.845H87.6789V199.145H86.7789L86.7669 197.777L86.9469 197.681C86.8509 197.969 86.6869 198.237 86.4549 198.485C86.2309 198.725 85.9629 198.917 85.6509 199.061C85.3469 199.197 85.0149 199.265 84.6549 199.265ZM92.047 199.265C91.463 199.265 90.943 199.125 90.487 198.845C90.039 198.557 89.683 198.169 89.419 197.681C89.155 197.193 89.023 196.637 89.023 196.013C89.023 195.381 89.155 194.821 89.419 194.333C89.683 193.837 90.039 193.449 90.487 193.169C90.943 192.881 91.451 192.737 92.011 192.737C92.323 192.737 92.627 192.789 92.923 192.893C93.219 192.997 93.483 193.141 93.715 193.325C93.955 193.501 94.147 193.701 94.291 193.925C94.435 194.149 94.515 194.381 94.531 194.621H94.279V190.265H95.191V199.145H94.279V197.453L94.471 197.441C94.447 197.681 94.363 197.909 94.219 198.125C94.075 198.341 93.891 198.537 93.667 198.713C93.451 198.881 93.203 199.017 92.923 199.121C92.643 199.217 92.351 199.265 92.047 199.265ZM92.155 198.461C92.571 198.461 92.939 198.357 93.259 198.149C93.587 197.933 93.843 197.641 94.027 197.273C94.211 196.905 94.303 196.481 94.303 196.001C94.303 195.521 94.211 195.097 94.027 194.729C93.843 194.361 93.587 194.069 93.259 193.853C92.939 193.637 92.567 193.529 92.143 193.529C91.719 193.529 91.339 193.637 91.003 193.853C90.675 194.069 90.415 194.365 90.223 194.741C90.039 195.109 89.947 195.533 89.947 196.013C89.947 196.477 90.039 196.897 90.223 197.273C90.415 197.641 90.675 197.933 91.003 198.149C91.339 198.357 91.723 198.461 92.155 198.461ZM99.7513 199.265C99.1193 199.265 98.5593 199.129 98.0713 198.857C97.5833 198.577 97.1993 198.193 96.9193 197.705C96.6473 197.217 96.5113 196.661 96.5113 196.037C96.5113 195.549 96.5873 195.105 96.7393 194.705C96.8993 194.297 97.1153 193.949 97.3873 193.661C97.6673 193.365 97.9993 193.137 98.3833 192.977C98.7673 192.817 99.1873 192.737 99.6433 192.737C100.043 192.737 100.415 192.809 100.759 192.953C101.111 193.097 101.415 193.305 101.671 193.577C101.927 193.841 102.123 194.157 102.259 194.525C102.395 194.885 102.455 195.285 102.439 195.725L102.427 196.181H97.1713L96.9793 195.437H101.671L101.503 195.641L101.515 195.341C101.499 194.997 101.403 194.693 101.227 194.429C101.051 194.165 100.823 193.957 100.543 193.805C100.271 193.653 99.9713 193.577 99.6433 193.577C99.1793 193.577 98.7793 193.677 98.4433 193.877C98.1073 194.069 97.8513 194.345 97.6753 194.705C97.5073 195.057 97.4193 195.481 97.4113 195.977C97.4193 196.473 97.5233 196.905 97.7233 197.273C97.9233 197.633 98.2033 197.917 98.5633 198.125C98.9313 198.325 99.3553 198.425 99.8353 198.425C100.179 198.425 100.499 198.369 100.795 198.257C101.091 198.137 101.391 197.941 101.695 197.669L102.151 198.317C101.959 198.509 101.731 198.677 101.467 198.821C101.211 198.957 100.935 199.065 100.639 199.145C100.343 199.225 100.047 199.265 99.7513 199.265ZM103.75 199.145V192.845H104.662V194.189L104.482 194.297C104.57 194.017 104.73 193.761 104.962 193.529C105.194 193.297 105.474 193.109 105.802 192.965C106.13 192.813 106.47 192.737 106.822 192.737C107.294 192.737 107.69 192.829 108.01 193.013C108.338 193.189 108.586 193.465 108.754 193.841C108.922 194.217 109.006 194.693 109.006 195.269V199.145H108.094V195.329C108.094 194.921 108.034 194.585 107.914 194.321C107.802 194.057 107.63 193.865 107.398 193.745C107.174 193.625 106.89 193.569 106.546 193.577C106.274 193.577 106.022 193.621 105.79 193.709C105.566 193.797 105.37 193.917 105.202 194.069C105.034 194.213 104.902 194.377 104.806 194.561C104.71 194.737 104.662 194.913 104.662 195.089V199.145H104.218C104.146 199.145 104.07 199.145 103.99 199.145C103.91 199.145 103.83 199.145 103.75 199.145ZM111.576 199.145V191.237H112.488V199.145H111.576ZM110.124 193.733V192.845H114.06V193.733H110.124ZM116.317 194.633L116.401 193.073L116.485 193.085L115.117 193.961L114.769 193.361L116.233 192.641L116.221 192.737L114.745 192.017L115.105 191.417L116.485 192.305L116.401 192.353L116.317 190.745H117.025L116.929 192.401L116.809 192.329L118.201 191.441L118.549 192.041L117.085 192.761V192.629L118.537 193.349L118.189 193.949L116.809 193.073L116.929 193.085L117.025 194.633H116.317Z" fill="white"/>
<line y1="-0.670824" x2="51.318" y2="-0.670824" transform="matrix(-1 0 0 1 179.374 194.145)" stroke="url(#paint1_linear_441_236)" stroke-width="1.34165"/>
<circle cx="182.314" cy="194.145" r="8.97674" transform="rotate(-90 182.314 194.145)" fill="#FDE74C"/>
<circle cx="181.988" cy="112.561" r="90.5612" fill="url(#paint2_linear_441_236)"/>
<path d="M165.212 112.078C164.267 112.078 163.379 111.908 162.548 111.568C161.736 111.228 161.028 110.746 160.423 110.123C159.819 109.5 159.337 108.772 158.978 107.941C158.638 107.091 158.468 106.156 158.468 105.136C158.468 104.437 158.581 103.653 158.808 102.784C159.035 101.896 159.375 100.952 159.828 99.9504C160.281 98.9303 160.858 97.8535 161.557 96.7201L164.532 91.9313H166.714L166.799 92.1863L163.512 97.5135C162.964 98.4013 162.473 99.2609 162.038 100.092C161.623 100.904 161.273 101.66 160.99 102.359C160.725 103.058 160.546 103.681 160.451 104.229L159.941 102.246C160.414 101.414 160.943 100.725 161.528 100.177C162.114 99.6103 162.756 99.1853 163.455 98.9019C164.154 98.5997 164.9 98.4486 165.694 98.4486C166.827 98.4486 167.857 98.7508 168.782 99.3553C169.727 99.9409 170.473 100.725 171.021 101.707C171.587 102.69 171.871 103.785 171.871 104.994C171.871 106.335 171.578 107.544 170.992 108.621C170.426 109.698 169.642 110.548 168.641 111.171C167.639 111.776 166.496 112.078 165.212 112.078ZM165.24 110.01C166.09 110.01 166.846 109.802 167.507 109.386C168.187 108.971 168.726 108.404 169.122 107.686C169.519 106.968 169.717 106.147 169.717 105.221C169.717 104.371 169.509 103.596 169.094 102.897C168.697 102.179 168.168 101.613 167.507 101.197C166.846 100.763 166.1 100.545 165.269 100.545C164.4 100.545 163.616 100.753 162.917 101.169C162.218 101.584 161.67 102.151 161.273 102.869C160.876 103.568 160.678 104.352 160.678 105.221C160.678 106.109 160.876 106.921 161.273 107.658C161.67 108.376 162.208 108.952 162.888 109.386C163.587 109.802 164.371 110.01 165.24 110.01ZM184.09 111.993V94.9066L184.686 95.0199L176.638 104.824L176.525 104.541H189.701V106.609H175.193L174.23 104.711L184.487 92.158H186.244V111.993H184.09ZM199.084 112.078C197.856 112.078 196.732 111.823 195.712 111.313C194.71 110.803 193.908 110.123 193.303 109.273C192.717 108.404 192.425 107.45 192.425 106.411C192.425 105.788 192.51 105.202 192.68 104.654C192.869 104.106 193.142 103.615 193.501 103.181C193.879 102.727 194.323 102.321 194.833 101.962C195.343 101.603 195.938 101.31 196.618 101.084L196.533 101.594C195.815 101.386 195.192 101.074 194.663 100.659C194.134 100.224 193.728 99.7237 193.445 99.157C193.18 98.5902 193.048 97.9952 193.048 97.3718C193.048 96.3706 193.312 95.4733 193.841 94.6799C194.389 93.8676 195.117 93.2347 196.023 92.7814C196.949 92.3091 197.969 92.073 199.084 92.073C200.217 92.073 201.237 92.3091 202.144 92.7814C203.069 93.2347 203.806 93.8676 204.354 94.6799C204.902 95.4733 205.176 96.3706 205.176 97.3718C205.176 97.9952 205.034 98.5808 204.751 99.1286C204.486 99.6764 204.09 100.168 203.561 100.602C203.032 101.018 202.389 101.348 201.634 101.594L201.605 101.14C202.437 101.424 203.164 101.83 203.787 102.359C204.43 102.888 204.921 103.502 205.261 104.201C205.62 104.881 205.799 105.618 205.799 106.411C205.799 107.469 205.497 108.432 204.892 109.301C204.288 110.151 203.476 110.831 202.456 111.341C201.454 111.833 200.33 112.078 199.084 112.078ZM199.084 109.981C199.934 109.981 200.689 109.821 201.35 109.5C202.031 109.16 202.569 108.716 202.966 108.168C203.362 107.62 203.561 107.006 203.561 106.326C203.561 105.589 203.362 104.937 202.966 104.371C202.588 103.785 202.059 103.332 201.379 103.011C200.718 102.671 199.953 102.501 199.084 102.501C198.252 102.501 197.497 102.671 196.817 103.011C196.156 103.332 195.627 103.785 195.23 104.371C194.833 104.937 194.635 105.589 194.635 106.326C194.635 106.987 194.833 107.601 195.23 108.168C195.627 108.716 196.156 109.16 196.817 109.5C197.497 109.821 198.252 109.981 199.084 109.981ZM199.084 100.517C199.82 100.517 200.472 100.385 201.039 100.12C201.624 99.837 202.087 99.4592 202.427 98.9869C202.767 98.5147 202.937 97.9763 202.937 97.3718C202.937 96.7484 202.767 96.2006 202.427 95.7283C202.087 95.256 201.624 94.8782 201.039 94.5949C200.472 94.2926 199.82 94.1415 199.084 94.1415C198.347 94.1415 197.686 94.2926 197.1 94.5949C196.533 94.8782 196.08 95.256 195.74 95.7283C195.419 96.2006 195.258 96.7484 195.258 97.3718C195.258 97.9763 195.419 98.5147 195.74 98.9869C196.08 99.4403 196.533 99.8087 197.1 100.092C197.686 100.375 198.347 100.517 199.084 100.517ZM158.38 127.109C157.792 127.109 157.267 127.016 156.803 126.831C156.34 126.638 155.969 126.375 155.69 126.043L156.826 125.069C157.066 125.308 157.336 125.486 157.638 125.602C157.939 125.71 158.225 125.764 158.496 125.764C158.596 125.764 158.685 125.753 158.762 125.73C158.84 125.706 158.905 125.676 158.959 125.637C159.021 125.591 159.067 125.54 159.098 125.486C159.129 125.424 159.145 125.355 159.145 125.278C159.145 125.123 159.079 125.007 158.948 124.93C158.886 124.891 158.774 124.845 158.612 124.791C158.449 124.729 158.241 124.667 157.986 124.605C157.622 124.513 157.306 124.4 157.035 124.269C156.772 124.138 156.556 123.987 156.386 123.817C156.231 123.662 156.112 123.485 156.027 123.284C155.949 123.083 155.911 122.859 155.911 122.611C155.911 122.233 156.023 121.9 156.247 121.615C156.479 121.329 156.78 121.108 157.151 120.954C157.522 120.792 157.924 120.71 158.357 120.71C158.697 120.71 159.017 120.749 159.319 120.826C159.628 120.904 159.914 121.012 160.176 121.151C160.447 121.29 160.686 121.456 160.895 121.649L159.91 122.751C159.778 122.619 159.624 122.503 159.446 122.403C159.268 122.295 159.091 122.21 158.913 122.148C158.735 122.078 158.569 122.043 158.414 122.043C158.299 122.043 158.194 122.055 158.102 122.078C158.016 122.094 157.943 122.125 157.881 122.171C157.827 122.21 157.785 122.26 157.754 122.322C157.723 122.376 157.707 122.438 157.707 122.507C157.707 122.592 157.727 122.669 157.765 122.739C157.812 122.801 157.874 122.859 157.951 122.913C158.02 122.951 158.14 123.002 158.31 123.064C158.488 123.125 158.72 123.195 159.006 123.272C159.369 123.373 159.678 123.489 159.933 123.62C160.196 123.744 160.404 123.89 160.559 124.06C160.69 124.192 160.783 124.346 160.837 124.524C160.899 124.694 160.93 124.88 160.93 125.081C160.93 125.475 160.818 125.826 160.594 126.135C160.377 126.437 160.076 126.676 159.69 126.854C159.311 127.024 158.874 127.109 158.38 127.109ZM162.554 126.993V119.285H164.42V126.993H162.554ZM161.464 122.472V120.838H165.603V122.472H161.464ZM168.772 127.109C168.324 127.109 167.938 127.012 167.613 126.819C167.288 126.618 167.037 126.336 166.859 125.973C166.689 125.602 166.604 125.158 166.604 124.64V120.838H168.471V124.362C168.471 124.74 168.56 125.038 168.737 125.254C168.923 125.463 169.178 125.567 169.502 125.567C169.665 125.567 169.812 125.544 169.943 125.498C170.074 125.444 170.186 125.37 170.279 125.278C170.38 125.177 170.457 125.061 170.511 124.93C170.565 124.798 170.592 124.655 170.592 124.501V120.838H172.458V126.993H170.708L170.638 125.73L170.975 125.591C170.89 125.876 170.735 126.135 170.511 126.367C170.295 126.599 170.036 126.781 169.734 126.912C169.433 127.043 169.112 127.109 168.772 127.109ZM176.464 127.109C175.939 127.109 175.463 126.974 175.038 126.703C174.621 126.433 174.293 126.058 174.053 125.579C173.814 125.092 173.694 124.54 173.694 123.921C173.694 123.303 173.814 122.754 174.053 122.275C174.293 121.788 174.621 121.406 175.038 121.128C175.463 120.849 175.943 120.71 176.476 120.71C176.754 120.71 177.021 120.753 177.276 120.838C177.538 120.923 177.77 121.039 177.971 121.186C178.18 121.332 178.35 121.499 178.481 121.684C178.613 121.87 178.694 122.067 178.725 122.275L178.273 122.38V118.415H180.139V126.993H178.4L178.296 125.602L178.667 125.672C178.651 125.857 178.582 126.039 178.458 126.217C178.334 126.387 178.168 126.541 177.96 126.68C177.759 126.812 177.531 126.916 177.276 126.993C177.021 127.07 176.75 127.109 176.464 127.109ZM176.928 125.567C177.214 125.567 177.457 125.502 177.658 125.37C177.867 125.231 178.029 125.038 178.145 124.791C178.261 124.543 178.319 124.254 178.319 123.921C178.319 123.581 178.261 123.288 178.145 123.04C178.029 122.793 177.867 122.604 177.658 122.472C177.457 122.333 177.214 122.264 176.928 122.264C176.65 122.264 176.406 122.333 176.198 122.472C175.997 122.604 175.838 122.793 175.722 123.04C175.606 123.288 175.548 123.581 175.548 123.921C175.548 124.254 175.606 124.543 175.722 124.791C175.838 125.038 175.997 125.231 176.198 125.37C176.406 125.502 176.65 125.567 176.928 125.567ZM184.64 127.109C183.96 127.109 183.365 126.974 182.855 126.703C182.352 126.433 181.962 126.062 181.684 125.591C181.414 125.111 181.278 124.567 181.278 123.956C181.278 123.477 181.356 123.04 181.51 122.646C181.665 122.244 181.881 121.9 182.159 121.615C182.445 121.329 182.778 121.108 183.156 120.954C183.543 120.792 183.964 120.71 184.42 120.71C184.852 120.71 185.247 120.788 185.602 120.942C185.958 121.097 186.267 121.313 186.529 121.591C186.792 121.87 186.993 122.198 187.132 122.577C187.271 122.955 187.337 123.369 187.329 123.817L187.318 124.327H182.426L182.148 123.272H185.799L185.602 123.481V123.249C185.587 123.056 185.525 122.89 185.417 122.751C185.316 122.604 185.181 122.488 185.011 122.403C184.849 122.318 184.663 122.275 184.454 122.275C184.145 122.275 183.883 122.337 183.666 122.461C183.458 122.577 183.299 122.747 183.191 122.971C183.083 123.195 183.029 123.473 183.029 123.805C183.029 124.138 183.098 124.431 183.237 124.686C183.384 124.941 183.593 125.138 183.863 125.278C184.141 125.417 184.47 125.486 184.849 125.486C185.104 125.486 185.335 125.448 185.544 125.37C185.753 125.293 185.977 125.162 186.216 124.976L187.086 126.205C186.846 126.406 186.591 126.576 186.321 126.715C186.05 126.846 185.772 126.943 185.486 127.005C185.208 127.074 184.926 127.109 184.64 127.109ZM188.511 126.993V120.838H190.284L190.354 122.09L189.971 122.229C190.056 121.951 190.207 121.7 190.423 121.475C190.647 121.244 190.914 121.058 191.223 120.919C191.532 120.78 191.857 120.71 192.197 120.71C192.66 120.71 193.051 120.807 193.368 121C193.684 121.186 193.92 121.468 194.075 121.846C194.237 122.217 194.318 122.677 194.318 123.226V126.993H192.452V123.365C192.452 123.118 192.417 122.913 192.348 122.751C192.278 122.588 192.174 122.468 192.035 122.391C191.895 122.314 191.722 122.279 191.513 122.287C191.351 122.287 191.2 122.314 191.061 122.368C190.922 122.414 190.798 122.488 190.69 122.588C190.589 122.681 190.512 122.789 190.458 122.913C190.404 123.036 190.377 123.176 190.377 123.33V126.993H189.438C189.237 126.993 189.055 126.993 188.893 126.993C188.739 126.993 188.611 126.993 188.511 126.993ZM196.39 126.993V119.285H198.256V126.993H196.39ZM195.3 122.472V120.838H199.439V122.472H195.3ZM202.811 127.109C202.224 127.109 201.698 127.016 201.235 126.831C200.771 126.638 200.4 126.375 200.122 126.043L201.258 125.069C201.498 125.308 201.768 125.486 202.069 125.602C202.371 125.71 202.657 125.764 202.927 125.764C203.028 125.764 203.117 125.753 203.194 125.73C203.271 125.706 203.337 125.676 203.391 125.637C203.453 125.591 203.499 125.54 203.53 125.486C203.561 125.424 203.576 125.355 203.576 125.278C203.576 125.123 203.511 125.007 203.379 124.93C203.317 124.891 203.205 124.845 203.043 124.791C202.881 124.729 202.672 124.667 202.417 124.605C202.054 124.513 201.737 124.4 201.467 124.269C201.204 124.138 200.988 123.987 200.818 123.817C200.663 123.662 200.543 123.485 200.458 123.284C200.381 123.083 200.342 122.859 200.342 122.611C200.342 122.233 200.454 121.9 200.678 121.615C200.91 121.329 201.212 121.108 201.583 120.954C201.954 120.792 202.355 120.71 202.788 120.71C203.128 120.71 203.449 120.749 203.75 120.826C204.059 120.904 204.345 121.012 204.608 121.151C204.879 121.29 205.118 121.456 205.327 121.649L204.341 122.751C204.21 122.619 204.056 122.503 203.878 122.403C203.7 122.295 203.522 122.21 203.345 122.148C203.167 122.078 203.001 122.043 202.846 122.043C202.73 122.043 202.626 122.055 202.533 122.078C202.448 122.094 202.375 122.125 202.313 122.171C202.259 122.21 202.216 122.26 202.185 122.322C202.154 122.376 202.139 122.438 202.139 122.507C202.139 122.592 202.158 122.669 202.197 122.739C202.243 122.801 202.305 122.859 202.382 122.913C202.452 122.951 202.572 123.002 202.742 123.064C202.92 123.125 203.151 123.195 203.437 123.272C203.8 123.373 204.11 123.489 204.365 123.62C204.627 123.744 204.836 123.89 204.991 124.06C205.122 124.192 205.215 124.346 205.269 124.524C205.331 124.694 205.362 124.88 205.362 125.081C205.362 125.475 205.249 125.826 205.025 126.135C204.809 126.437 204.508 126.676 204.121 126.854C203.743 127.024 203.306 127.109 202.811 127.109ZM156.719 142.147V134.922H157.453L157.462 136.264L157.327 136.216C157.385 135.971 157.507 135.746 157.694 135.54C157.887 135.334 158.119 135.166 158.39 135.038C158.667 134.909 158.953 134.844 159.249 134.844C159.713 134.844 160.125 134.957 160.486 135.183C160.846 135.408 161.13 135.717 161.336 136.11C161.542 136.503 161.645 136.95 161.645 137.453C161.645 137.955 161.542 138.406 161.336 138.805C161.13 139.198 160.846 139.51 160.486 139.742C160.132 139.967 159.732 140.08 159.288 140.08C158.972 140.08 158.67 140.016 158.38 139.887C158.097 139.758 157.852 139.587 157.646 139.375C157.446 139.162 157.324 138.934 157.279 138.689L157.462 138.612V142.147H156.719ZM159.172 139.404C159.513 139.404 159.816 139.32 160.08 139.153C160.351 138.985 160.56 138.753 160.708 138.457C160.863 138.161 160.94 137.826 160.94 137.453C160.94 137.086 160.863 136.757 160.708 136.467C160.56 136.178 160.354 135.949 160.09 135.781C159.826 135.614 159.52 135.53 159.172 135.53C158.837 135.53 158.538 135.614 158.274 135.781C158.016 135.942 157.81 136.168 157.656 136.458C157.507 136.747 157.433 137.082 157.433 137.462C157.433 137.836 157.507 138.171 157.656 138.467C157.81 138.757 158.016 138.985 158.274 139.153C158.538 139.32 158.837 139.404 159.172 139.404ZM165.027 140.09C164.518 140.09 164.067 139.98 163.675 139.761C163.282 139.536 162.973 139.227 162.747 138.834C162.528 138.441 162.419 137.994 162.419 137.491C162.419 137.098 162.48 136.741 162.602 136.419C162.731 136.091 162.905 135.81 163.124 135.579C163.349 135.34 163.617 135.157 163.926 135.028C164.235 134.899 164.573 134.835 164.94 134.835C165.262 134.835 165.561 134.893 165.838 135.009C166.122 135.125 166.366 135.292 166.572 135.511C166.779 135.724 166.936 135.978 167.046 136.274C167.155 136.564 167.204 136.886 167.191 137.24L167.181 137.607H162.95L162.795 137.008H166.572L166.437 137.172L166.447 136.931C166.434 136.654 166.357 136.409 166.215 136.197C166.073 135.984 165.89 135.817 165.664 135.695C165.445 135.572 165.204 135.511 164.94 135.511C164.566 135.511 164.244 135.591 163.974 135.752C163.703 135.907 163.497 136.129 163.356 136.419C163.221 136.702 163.15 137.044 163.143 137.443C163.15 137.842 163.233 138.19 163.394 138.486C163.555 138.776 163.781 139.005 164.071 139.172C164.367 139.333 164.708 139.414 165.095 139.414C165.371 139.414 165.629 139.368 165.867 139.278C166.106 139.182 166.347 139.024 166.592 138.805L166.959 139.327C166.804 139.481 166.621 139.616 166.408 139.732C166.202 139.842 165.98 139.929 165.742 139.993C165.503 140.058 165.265 140.09 165.027 140.09ZM168.246 139.993V134.922H168.98L168.99 136.39L168.903 136.139C168.967 135.907 169.077 135.691 169.232 135.492C169.393 135.292 169.586 135.134 169.811 135.018C170.036 134.896 170.284 134.835 170.555 134.835C170.664 134.835 170.767 134.844 170.864 134.864C170.961 134.877 171.041 134.896 171.106 134.922L170.912 135.724C170.822 135.691 170.729 135.666 170.632 135.646C170.542 135.62 170.455 135.608 170.371 135.608C170.172 135.608 169.985 135.649 169.811 135.733C169.644 135.81 169.499 135.917 169.376 136.052C169.254 136.187 169.157 136.342 169.087 136.516C169.022 136.683 168.99 136.857 168.99 137.037V139.993H168.246ZM177.755 139.993V136.612C177.755 136.284 177.639 136.02 177.407 135.82C177.175 135.62 176.869 135.521 176.489 135.521C176.174 135.521 175.887 135.585 175.63 135.714C175.372 135.843 175.143 136.036 174.944 136.293L174.461 135.81C174.751 135.482 175.066 135.237 175.407 135.076C175.755 134.915 176.132 134.835 176.538 134.835C176.924 134.835 177.259 134.899 177.542 135.028C177.826 135.157 178.041 135.344 178.19 135.588C178.344 135.833 178.421 136.129 178.421 136.477V139.993H177.755ZM176.016 140.09C175.688 140.09 175.395 140.025 175.137 139.897C174.879 139.768 174.673 139.591 174.519 139.365C174.371 139.133 174.297 138.863 174.297 138.554C174.297 138.303 174.342 138.081 174.432 137.887C174.528 137.694 174.667 137.533 174.847 137.404C175.028 137.276 175.256 137.179 175.533 137.115C175.81 137.044 176.126 137.008 176.48 137.008H178.083L178.025 137.617H176.383C176.158 137.617 175.958 137.636 175.784 137.675C175.617 137.713 175.472 137.775 175.35 137.858C175.234 137.936 175.143 138.032 175.079 138.148C175.021 138.258 174.992 138.39 174.992 138.544C174.992 138.725 175.037 138.885 175.127 139.027C175.224 139.162 175.35 139.269 175.504 139.346C175.665 139.417 175.845 139.452 176.045 139.452C176.309 139.452 176.557 139.407 176.789 139.317C177.021 139.22 177.227 139.092 177.407 138.931C177.594 138.763 177.742 138.576 177.851 138.37L178.054 138.834C177.913 139.079 177.736 139.298 177.523 139.491C177.31 139.678 177.075 139.826 176.818 139.935C176.567 140.038 176.299 140.09 176.016 140.09ZM179.717 139.993V134.922H180.451V136.004L180.307 136.091C180.377 135.865 180.506 135.659 180.693 135.472C180.88 135.286 181.105 135.134 181.369 135.018C181.633 134.896 181.907 134.835 182.19 134.835C182.57 134.835 182.889 134.909 183.147 135.057C183.411 135.199 183.61 135.421 183.745 135.724C183.881 136.026 183.948 136.409 183.948 136.873V139.993H183.214V136.921C183.214 136.593 183.166 136.322 183.069 136.11C182.979 135.897 182.841 135.743 182.654 135.646C182.474 135.55 182.245 135.505 181.968 135.511C181.749 135.511 181.546 135.546 181.359 135.617C181.179 135.688 181.021 135.785 180.886 135.907C180.751 136.023 180.645 136.155 180.567 136.303C180.49 136.445 180.451 136.586 180.451 136.728V139.993H180.094C180.036 139.993 179.975 139.993 179.91 139.993C179.846 139.993 179.782 139.993 179.717 139.993ZM185.292 139.993V134.922H186.027V136.004L185.882 136.091C185.953 135.865 186.081 135.659 186.268 135.472C186.455 135.286 186.68 135.134 186.944 135.018C187.208 134.896 187.482 134.835 187.765 134.835C188.145 134.835 188.464 134.909 188.722 135.057C188.986 135.199 189.185 135.421 189.321 135.724C189.456 136.026 189.523 136.409 189.523 136.873V139.993H188.789V136.921C188.789 136.593 188.741 136.322 188.644 136.11C188.554 135.897 188.416 135.743 188.229 135.646C188.049 135.55 187.82 135.505 187.543 135.511C187.324 135.511 187.121 135.546 186.935 135.617C186.754 135.688 186.597 135.785 186.461 135.907C186.326 136.023 186.22 136.155 186.143 136.303C186.065 136.445 186.027 136.586 186.027 136.728V139.993H185.669C185.611 139.993 185.55 139.993 185.486 139.993C185.421 139.993 185.357 139.993 185.292 139.993ZM192.684 140.09C192.31 140.09 191.988 140.012 191.718 139.858C191.447 139.697 191.238 139.468 191.09 139.172C190.948 138.869 190.877 138.499 190.877 138.061V134.922H191.611V137.878C191.611 138.386 191.727 138.776 191.959 139.046C192.197 139.311 192.529 139.443 192.954 139.443C193.16 139.443 193.347 139.407 193.514 139.336C193.688 139.259 193.84 139.159 193.968 139.037C194.097 138.914 194.197 138.779 194.268 138.631C194.345 138.477 194.384 138.322 194.384 138.167V134.922H195.118V139.993H194.393L194.384 138.892L194.529 138.815C194.451 139.046 194.319 139.262 194.133 139.462C193.952 139.655 193.737 139.81 193.485 139.926C193.241 140.035 192.973 140.09 192.684 140.09ZM196.47 139.993V134.922H197.205L197.214 136.071L197.04 136.139C197.118 135.946 197.217 135.772 197.34 135.617C197.462 135.456 197.604 135.321 197.765 135.212C197.932 135.096 198.109 135.005 198.296 134.941C198.489 134.877 198.686 134.844 198.885 134.844C199.169 134.844 199.42 134.893 199.639 134.989C199.864 135.08 200.048 135.221 200.189 135.414C200.338 135.608 200.444 135.852 200.508 136.149H200.373L200.431 135.984C200.508 135.817 200.608 135.666 200.73 135.53C200.859 135.389 201.004 135.266 201.165 135.163C201.333 135.06 201.506 134.983 201.687 134.931C201.874 134.873 202.057 134.844 202.237 134.844C202.611 134.844 202.923 134.919 203.174 135.067C203.426 135.215 203.616 135.443 203.744 135.752C203.873 136.055 203.938 136.442 203.938 136.912V139.993H203.203V136.941C203.203 136.451 203.104 136.094 202.904 135.868C202.704 135.643 202.408 135.53 202.015 135.53C201.809 135.53 201.616 135.566 201.436 135.637C201.262 135.701 201.11 135.794 200.982 135.917C200.853 136.039 200.753 136.174 200.682 136.322C200.611 136.471 200.576 136.628 200.576 136.796V139.993H199.832V136.931C199.832 136.461 199.732 136.11 199.533 135.878C199.333 135.646 199.046 135.53 198.673 135.53C198.46 135.53 198.264 135.566 198.084 135.637C197.91 135.707 197.755 135.801 197.62 135.917C197.491 136.033 197.391 136.165 197.321 136.313C197.25 136.454 197.214 136.599 197.214 136.747V139.993H196.47ZM206.191 136.361L206.258 135.105L206.326 135.115L205.225 135.82L204.945 135.337L206.123 134.758L206.113 134.835L204.925 134.255L205.215 133.772L206.326 134.487L206.258 134.526L206.191 133.231H206.761L206.683 134.564L206.587 134.506L207.707 133.792L207.987 134.275L206.809 134.854V134.748L207.978 135.327L207.698 135.81L206.587 135.105L206.683 135.115L206.761 136.361H206.191Z" fill="white"/>
<defs>
<linearGradient id="paint0_linear_441_236" x1="122.468" y1="7.96032" x2="155.548" y2="41.0409" gradientUnits="userSpaceOnUse">
<stop stop-color="white"/>
<stop offset="1" stop-color="white" stop-opacity="0"/>
</linearGradient>
<linearGradient id="paint1_linear_441_236" x1="51.318" y1="0.999954" x2="0" y2="0.999954" gradientUnits="userSpaceOnUse">
<stop stop-color="white"/>
<stop offset="1" stop-color="white" stop-opacity="0"/>
</linearGradient>
<linearGradient id="paint2_linear_441_236" x1="181.988" y1="22" x2="181.988" y2="203.122" gradientUnits="userSpaceOnUse">
<stop stop-color="#1E86FF"/>
<stop offset="1" stop-color="#1E86FF" stop-opacity="0"/>
</linearGradient>
</defs>
</svg>
