<svg width="937" height="506" viewBox="0 0 937 506" fill="none" xmlns="http://www.w3.org/2000/svg">
<g filter="url(#filter0_d_197_258)">
<path d="M875.285 736.697C875.3 736.667 875.327 736.645 875.358 736.636C994.771 701.569 1061.09 603.6 1051.47 483.902C1050.3 469.342 1058.44 455.241 1072.21 450.352C1080.55 447.389 1088.96 444.469 1097.44 441.807C1142.08 427.833 1186.93 414.43 1231.55 400.412C1253.31 394.866 1270.1 377.608 1275.1 355.756C1281.37 334.738 1275.31 312.013 1259.44 296.893C1201.74 240.32 1145.5 182.111 1085.2 128.441C1033.63 82.5014 971.099 71.3955 904.478 92.2074C871.766 102.436 839.495 114.272 807.337 126.158C798.749 129.92 788.799 128.685 781.388 122.957C622.502 15.0202 444.701 -22.6706 255.273 -15.1239C189.981 -12.5192 125.344 -5.03867 63.511 19.1349C62.1494 19.6672 60.7409 20.0831 59.3485 20.5289C45.6937 24.9005 37.4449 39.0748 40.724 53.2758C45.9127 112.677 64.9526 167.89 87.939 222.157C148.313 364.751 235.728 487.255 357.282 583.688C388.893 607.215 421.697 629.05 455.604 649.131C464.301 653.487 470.114 662.073 470.94 671.785C474.475 703.326 479.417 734.682 483.702 766.034C494.689 846.111 538.359 899.704 613.907 927.518C683.425 953.051 752.826 978.935 822.452 1004.15C869.639 1021.22 913.125 984.72 905.561 934.707C896.631 875.597 887.357 816.535 878.238 757.445C877.195 750.829 876.306 744.183 875.273 736.768C875.269 736.744 875.274 736.719 875.285 736.697Z" fill="url(#paint0_linear_197_258)"/>
</g>
<defs>
<filter id="filter0_d_197_258" x="0.0057373" y="-56.054" width="1317.53" height="1104.46" filterUnits="userSpaceOnUse" color-interpolation-filters="sRGB">
<feFlood flood-opacity="0" result="BackgroundImageFix"/>
<feColorMatrix in="SourceAlpha" type="matrix" values="0 0 0 0 0 0 0 0 0 0 0 0 0 0 0 0 0 0 127 0" result="hardAlpha"/>
<feOffset/>
<feGaussianBlur stdDeviation="20"/>
<feComposite in2="hardAlpha" operator="out"/>
<feColorMatrix type="matrix" values="0 0 0 0 0 0 0 0 0 0 0 0 0 0 0 0 0 0 0.1 0"/>
<feBlend mode="normal" in2="BackgroundImageFix" result="effect1_dropShadow_197_258"/>
<feBlend mode="normal" in="SourceGraphic" in2="effect1_dropShadow_197_258" result="shape"/>
</filter>
<linearGradient id="paint0_linear_197_258" x1="120.643" y1="331.555" x2="713.85" y2="467.349" gradientUnits="userSpaceOnUse">
<stop stop-color="#0047AB"/>
<stop offset="1" stop-color="#1E86FF"/>
</linearGradient>
</defs>
</svg>
