<svg width="669" height="536" viewBox="0 0 669 536" fill="none" xmlns="http://www.w3.org/2000/svg">
<path d="M451.486 393.828C520.495 374.267 556.702 317.171 545.023 248.805C553.722 245.892 562.555 242.653 571.534 239.931C595.661 232.637 619.899 225.641 644.013 218.324C655.771 215.429 664.849 206.421 667.551 195.015C670.937 184.045 667.663 172.183 659.088 164.291C627.905 134.762 597.507 104.379 564.92 76.3657C537.048 52.387 503.255 46.5902 467.25 57.4532C449.571 62.7921 432.13 68.9699 414.751 75.174C410.109 77.1378 404.732 76.4931 400.727 73.5031C314.858 17.1645 218.766 -2.50863 116.391 1.43045C80.7156 2.805 45.4018 6.78099 11.6499 19.7329C3.59392 21.5716 -1.42189 29.3443 0.440093 37.1324C3.2443 68.1375 13.5343 96.9565 25.9571 125.282C58.5856 199.71 105.829 263.653 171.522 313.987C188.605 326.267 206.334 337.664 224.659 348.146C229.36 350.419 232.501 354.901 232.948 359.97C234.858 376.434 237.529 392.8 239.844 409.164C245.782 450.961 269.384 478.935 310.213 493.453C347.784 506.78 385.291 520.29 422.92 533.452C448.421 542.36 471.923 523.31 467.836 497.205C463.009 466.352 457.997 435.524 453.069 404.681C452.504 401.222 452.023 397.747 451.463 393.869L451.486 393.828Z" fill="url(#paint0_linear_375_128)"/>
<defs>
<linearGradient id="paint0_linear_375_128" x1="-8.43188" y1="25.6648" x2="403.353" y2="331.957" gradientUnits="userSpaceOnUse">
<stop stop-color="#004EC1"/>
<stop offset="1" stop-color="#1F86FF" stop-opacity="0"/>
</linearGradient>
</defs>
</svg>
