<svg width="256" height="200" viewBox="0 0 256 200" fill="none" xmlns="http://www.w3.org/2000/svg">
<path d="M261.875 240.495L317.727 122.19C326.862 102.828 324.887 79.9905 312.725 62.3068L238.26 -45.1684C226.097 -62.852 205.306 -72.6391 183.86 -70.8589L53.4921 -60.1033C32.0463 -58.3231 13.2297 -45.2722 4.14538 -25.8361L-51.7061 92.4687C-60.9153 111.882 -59.0146 134.77 -46.778 152.403L27.8122 259.902C39.9748 277.585 60.7661 287.372 82.212 285.592L212.529 274.762C233.975 272.982 252.791 259.931 262 240.518L261.875 240.495Z" fill="url(#paint0_linear_46_4339)"/>
<path d="M234.655 212.381L278.712 119.058C285.918 103.785 284.361 85.77 274.766 71.8206L216.026 -12.9588C206.432 -26.9082 190.031 -34.6285 173.114 -33.2242L70.2764 -24.7399C53.3593 -23.3356 38.5163 -13.0407 31.3503 2.29099L-12.7069 95.6131C-19.9714 110.927 -18.472 128.982 -8.81944 142.891L50.0193 227.689C59.6135 241.638 76.0143 249.358 92.9314 247.954L195.729 239.411C212.646 238.007 227.489 227.712 234.753 212.399L234.655 212.381Z" fill="url(#paint1_linear_46_4339)"/>
<path d="M213.124 190.142L247.852 116.581C253.532 104.542 252.304 90.3419 244.741 79.3464L198.44 12.5195C190.877 1.52399 177.949 -4.5615 164.615 -3.45458L83.5533 3.23314C70.2186 4.34005 58.5186 12.4549 52.8701 24.5401L18.1422 98.1007C12.4161 110.171 13.5979 124.403 21.2065 135.367L67.5859 202.209C75.1484 213.204 88.0763 219.29 101.411 218.183L182.441 211.449C195.775 210.342 207.475 202.227 213.201 190.156L213.124 190.142Z" fill="url(#paint2_linear_46_4339)"/>
<path d="M191.183 167.479L216.403 114.057C220.529 105.314 219.637 95.0007 214.145 87.0153L180.519 38.483C175.026 30.4977 165.638 26.0781 155.953 26.882L97.0836 31.7389C87.3994 32.5428 78.9024 38.4361 74.8002 47.2128L49.5795 100.635C45.4209 109.402 46.2793 119.738 51.8049 127.7L85.4874 176.243C90.9796 184.228 100.368 188.648 110.053 187.844L168.899 182.953C178.584 182.149 187.081 176.256 191.239 167.49L191.183 167.479Z" fill="url(#paint3_linear_46_4339)"/>
<path d="M172.761 148.452L190 111.937C192.819 105.961 192.21 98.9121 188.456 93.454L165.472 60.2815C161.718 54.8234 155.301 51.8026 148.681 52.3521L108.443 55.6718C101.824 56.2213 96.0161 60.2494 93.2122 66.2484L75.9735 102.763C73.1311 108.755 73.7178 115.82 77.4946 121.262L100.517 154.442C104.271 159.9 110.688 162.921 117.308 162.371L157.53 159.029C164.149 158.479 169.957 154.451 172.8 148.459L172.761 148.452Z" fill="url(#paint4_linear_46_4339)"/>
<defs>
<linearGradient id="paint0_linear_46_4339" x1="185.019" y1="-103.516" x2="166.712" y2="365.775" gradientUnits="userSpaceOnUse">
<stop stop-color="#004EC1"/>
<stop offset="0.588542" stop-color="#3C96FF"/>
</linearGradient>
<linearGradient id="paint1_linear_46_4339" x1="174.029" y1="-58.9847" x2="159.587" y2="311.205" gradientUnits="userSpaceOnUse">
<stop stop-color="#004EC1"/>
<stop offset="0.588542" stop-color="#3C96FF"/>
</linearGradient>
<linearGradient id="paint2_linear_46_4339" x1="165.335" y1="-23.7601" x2="153.952" y2="268.04" gradientUnits="userSpaceOnUse">
<stop stop-color="#004EC1"/>
<stop offset="0.588542" stop-color="#3C96FF"/>
</linearGradient>
<linearGradient id="paint3_linear_46_4339" x1="156.477" y1="12.1353" x2="148.21" y2="224.052" gradientUnits="userSpaceOnUse">
<stop stop-color="#004EC1"/>
<stop offset="0.588542" stop-color="#3C96FF"/>
</linearGradient>
<linearGradient id="paint4_linear_46_4339" x1="149.039" y1="42.2725" x2="143.389" y2="187.12" gradientUnits="userSpaceOnUse">
<stop stop-color="#004EC1"/>
<stop offset="0.588542" stop-color="#3C96FF"/>
</linearGradient>
</defs>
</svg>
