<svg width="126" height="28" viewBox="0 0 126 28" fill="none" xmlns="http://www.w3.org/2000/svg">
<path d="M34.7857 12.497C36.3722 12.497 37.6554 11.1247 37.6554 9.43494C37.6554 7.74522 36.3722 6.36986 34.7857 6.36986C33.1991 6.36986 31.919 7.74219 31.919 9.43494C31.919 11.1277 33.2022 12.497 34.7857 12.497ZM40.1429 14.3893H37.9193V12.763C37.1124 14.2744 35.3621 14.9092 33.6724 14.6553C30.8603 14.2381 29.3496 11.696 29.4254 9.21428C29.4816 7.87368 30.02 6.59798 30.9422 5.62021C31.4202 5.16376 31.9858 4.80826 32.6051 4.57503C33.2244 4.3418 33.8846 4.23567 34.546 4.26299C35.2077 4.25222 35.8618 4.4044 36.4503 4.70603C37.0387 5.00765 37.5434 5.44938 37.9193 5.99201V4.55922H40.149L40.1429 14.3893Z" fill="#F16136"/>
<path d="M119.874 12.4975C121.46 12.4975 122.747 11.1252 122.747 9.43547C122.747 7.74575 121.46 6.37039 119.874 6.37039C118.287 6.37039 117.007 7.74272 117.007 9.43547C117.007 11.1282 118.293 12.4975 119.874 12.4975ZM125.231 14.3898H123.001V12.7635C122.198 14.2749 120.447 14.9097 118.754 14.6558C115.945 14.2386 114.435 11.6965 114.507 9.21481C114.568 7.87071 115.113 6.59343 116.042 5.61772C116.521 5.16142 117.086 4.806 117.705 4.57278C118.325 4.33957 118.985 4.23335 119.646 4.2605C120.307 4.25016 120.959 4.4026 121.546 4.70425C122.133 5.0059 122.636 5.44741 123.011 5.98952V4.55975H125.24L125.231 14.3898Z" fill="#F16136"/>
<path d="M12.0492 12.9871L13.1807 11.3729C14.4912 12.0953 15.1677 12.5427 16.2416 12.6274C18.9718 12.8541 18.8413 10.8137 17.822 10.5386C16.5844 10.191 15.0918 10.3512 13.8784 9.71643C13.374 9.47845 12.959 9.08625 12.6939 8.59693C12.4287 8.10762 12.3272 7.54674 12.4041 6.99595C12.5224 5.78684 13.2687 4.7591 15.016 4.36916C16.7633 3.97923 19.0537 4.36916 20.4764 5.43015L19.172 7.10174C18.5615 6.75722 17.9144 6.48146 17.2426 6.27955C15.7441 5.95309 14.9978 6.45487 14.8522 7.02013C14.8252 7.13875 14.8224 7.26158 14.844 7.38129C14.8656 7.50101 14.9112 7.61517 14.978 7.71699C15.0448 7.8188 15.1314 7.90618 15.2328 7.97393C15.3342 8.04168 15.4482 8.08841 15.5681 8.11135C16.3174 8.29876 17.6643 8.33805 18.5744 8.56174C20.0244 8.9154 20.7343 9.86757 20.8465 11.0464C21.1226 13.9967 18.356 15.0788 15.8229 14.7856C14.3902 14.6419 13.054 13.9998 12.0492 12.9719" fill="#F16136"/>
<path d="M5.92756 10.3089L6.61011 7.26494H4.67167L3.98609 10.3089H5.92756ZM3.69183 2.75195H5.76375L5.15704 5.26992H7.03784L7.62939 2.75195H9.73771L9.131 5.26992H10.6174V7.26796H8.69416L8.00858 10.3089H9.52536V12.3039H7.55962L7.06515 14.5014H4.9811L5.4786 12.3039H3.59476L3.10029 14.5014H1.01927L1.51678 12.3039H0V10.3089H1.96271L2.64829 7.26494H1.13152V5.26689H3.08209L3.69183 2.75195Z" fill="#F16136"/>
<path d="M29.2648 14.175C28.2175 14.3649 27.1506 14.4238 26.0887 14.3503C24.1472 14.1387 23.7832 12.987 23.7832 11.1734V6.58179H21.7932V4.53538H23.6618V1.78467H26.0887V4.53538H28.7764V6.58179H26.0887V11.1734C26.0887 12.0288 26.6044 12.2616 27.6054 12.2616H28.5853L29.2648 14.175Z" fill="#F16136"/>
<path d="M42.0511 14.4196V4.54425H44.3081V5.78358C45.1483 4.71957 46.0341 4.2722 47.1414 4.2722C48.1335 4.24921 49.1049 4.55663 49.9019 5.14578L48.6885 7.29496C48.1607 6.8083 46.9897 6.17049 45.9431 6.6632C45.2879 6.96548 44.481 7.50958 44.481 9.43206V14.4196H42.0511Z" fill="#F16136"/>
<path d="M58.3008 14.175C56.3017 14.6072 54.6423 14.7221 53.6898 13.6309C53.101 12.9492 52.7903 12.0723 52.8192 11.1734V6.58179H50.8292V4.53538H52.7009V1.78467H55.1277V4.53538H57.8154V6.58179H55.1277L55.158 11.1734C55.158 12.0288 55.6768 12.2616 56.6748 12.2616H57.7396L58.3008 14.175Z" fill="#F16136"/>
<path d="M76.5184 6.55139C77.0957 6.55139 77.66 6.72201 78.14 7.04167C78.62 7.36132 78.994 7.81565 79.2148 8.34718C79.4356 8.8787 79.4932 9.46354 79.3803 10.0277C79.2675 10.5919 78.9893 11.11 78.5808 11.5165C78.1724 11.9231 77.6521 12.1998 77.0858 12.3117C76.5195 12.4235 75.9327 12.3655 75.3995 12.145C74.8663 11.9244 74.4107 11.5512 74.0904 11.0726C73.7701 10.594 73.5995 10.0315 73.6001 9.45626C73.6009 8.68556 73.9087 7.9467 74.4559 7.40202C75.0031 6.85734 75.7449 6.55138 76.5184 6.55139ZM70.9852 18.5669H73.3301V12.9052C74.137 14.4166 75.8298 14.8731 77.5316 14.6191C80.3437 14.202 81.8544 11.7173 81.7785 9.24165C81.7197 7.89724 81.1744 6.6195 80.2436 5.64456C79.7664 5.18695 79.2009 4.8307 78.5814 4.59739C77.9619 4.36409 77.3013 4.25861 76.6397 4.28733C74.4009 4.34477 73.6608 5.6506 73.3331 6.01636V4.58357H70.9852V18.5669Z" fill="#F16136"/>
<path d="M67.366 14.3746V12.9297C66.9786 13.4824 66.4543 13.9259 65.8441 14.2172C65.2339 14.5085 64.5586 14.6377 63.8835 14.5923C62.7929 14.5482 61.7629 14.0809 61.0135 13.2901C60.2641 12.4993 59.8548 11.4479 59.8731 10.3604V4.52344H62.2666V9.63493C62.2666 11.5665 63.5771 12.4612 64.8451 12.3917C66.0373 12.3252 67.1961 11.4244 67.1961 9.31452V4.52344H69.5866V14.3746H67.366Z" fill="#F16136"/>
<path d="M89.2714 4.50224V5.95921C89.6592 5.40607 90.1839 4.96228 90.7947 4.67097C91.4054 4.37965 92.0814 4.25072 92.757 4.29669C93.8478 4.33997 94.8783 4.80709 95.6279 5.59803C96.3774 6.38897 96.7864 7.44088 96.7673 8.52856V14.3504H94.3739V9.23891C94.3739 7.31038 93.0634 6.41565 91.7953 6.48215C90.6031 6.54865 89.4443 7.44943 89.4443 9.56234V14.3504H87.063V4.50224H89.2714Z" fill="#F16136"/>
<path d="M84.3327 0.23389C84.6226 0.233292 84.9062 0.31841 85.1476 0.478473C85.3889 0.638535 85.5772 0.866345 85.6886 1.13307C85.7999 1.3998 85.8294 1.69345 85.7732 1.97686C85.717 2.26027 85.5777 2.5207 85.3729 2.72518C85.1681 2.92967 84.907 3.06902 84.6227 3.1256C84.3384 3.18218 84.0437 3.15345 83.7758 3.04303C83.5078 2.93262 83.2788 2.74549 83.1177 2.50533C82.9566 2.26517 82.8705 1.98277 82.8705 1.69389C82.8713 1.30744 83.0256 0.937001 83.2995 0.663458C83.5735 0.389915 83.9449 0.235486 84.3327 0.23389Z" fill="#F16136"/>
<path d="M85.6068 4.4751H83.0646V14.3505H85.6068V4.4751Z" fill="#F16136"/>
<path d="M103.308 6.54251C103.89 6.54251 104.459 6.71447 104.942 7.03666C105.426 7.35884 105.804 7.81677 106.026 8.35253C106.249 8.8883 106.307 9.47784 106.194 10.0466C106.08 10.6154 105.8 11.1378 105.388 11.5479C104.977 11.9579 104.453 12.2372 103.882 12.3503C103.311 12.4635 102.719 12.4054 102.182 12.1835C101.644 11.9616 101.184 11.5857 100.861 11.1036C100.538 10.6214 100.365 10.0545 100.365 9.47459C100.365 8.69696 100.675 7.95117 101.227 7.4013C101.779 6.85142 102.527 6.54251 103.308 6.54251ZM108.814 0.30957H106.478V5.97725C105.671 4.46587 103.914 4.07593 102.279 4.26032C99.4369 4.5898 97.9201 7.18031 98.0475 9.71641C98.0971 11.0371 98.6377 12.2923 99.5643 13.2379C100.042 13.6954 100.607 14.0517 101.227 14.2855C101.846 14.5193 102.506 14.6256 103.168 14.5982C105.407 14.5407 106.147 13.2349 106.475 12.8661V14.2899H108.823L108.814 0.30957Z" fill="#F16136"/>
<path fill-rule="evenodd" clip-rule="evenodd" d="M112.087 0.23389C112.377 0.233292 112.66 0.31841 112.902 0.478473C113.143 0.638535 113.331 0.866345 113.443 1.13307C113.554 1.3998 113.584 1.69345 113.527 1.97686C113.471 2.26027 113.332 2.5207 113.127 2.72518C112.922 2.92967 112.661 3.06902 112.377 3.1256C112.093 3.18218 111.798 3.15345 111.53 3.04303C111.262 2.93262 111.033 2.74549 110.872 2.50533C110.711 2.26517 110.625 1.98277 110.625 1.69389C110.625 1.30719 110.779 0.936295 111.053 0.66258C111.327 0.388864 111.699 0.23469 112.087 0.23389Z" fill="#004EC1"/>
<path d="M113.358 4.4751H110.816V14.3505H113.358V4.4751Z" fill="#004EC1"/>
<path fill-rule="evenodd" clip-rule="evenodd" d="M92.2686 25.287H101.642V15.9194H113.37V18.4102H104.142V27.7747H92.2686V25.287Z" fill="#16B14B"/>
</svg>
