<svg width="88" height="20" viewBox="0 0 88 20" fill="none" xmlns="http://www.w3.org/2000/svg">
<path d="M24.3294 8.71046C25.4365 8.71046 26.3319 7.74943 26.3319 6.56614C26.3319 5.38285 25.4365 4.4197 24.3294 4.4197C23.2223 4.4197 22.329 5.38073 22.329 6.56614C22.329 7.75155 23.2244 8.71046 24.3294 8.71046ZM28.0677 10.0356H26.516V8.89674C25.953 9.95514 24.7316 10.3997 23.5525 10.2219C21.5902 9.92974 20.5361 8.14951 20.589 6.41161C20.6282 5.4728 21.0039 4.57945 21.6474 3.89473C21.9809 3.57509 22.3756 3.32613 22.8078 3.1628C23.2399 2.99948 23.7006 2.92515 24.1622 2.94429C24.6239 2.93675 25.0803 3.04332 25.4909 3.25454C25.9016 3.46576 26.2537 3.7751 26.516 4.1551V3.15174H28.0719L28.0677 10.0356Z" fill="white"/>
<path d="M83.7035 8.7104C84.8106 8.7104 85.7081 7.74938 85.7081 6.56608C85.7081 5.38279 84.8106 4.41964 83.7035 4.41964C82.5964 4.41964 81.7031 5.38067 81.7031 6.56608C81.7031 7.75149 82.6006 8.7104 83.7035 8.7104ZM87.4417 10.0355H85.8859V8.89668C85.3249 9.95508 84.1035 10.3996 82.9224 10.2218C80.9622 9.92968 79.908 8.14945 79.9588 6.41156C80.0009 5.4703 80.3812 4.57584 81.0299 3.89256C81.3636 3.57302 81.7582 3.32412 82.1904 3.1608C82.6225 2.99749 83.0831 2.9231 83.5447 2.94212C84.0055 2.93488 84.4609 3.04163 84.8704 3.25287C85.28 3.46411 85.631 3.7733 85.8922 4.15293V3.15168H87.4481L87.4417 10.0355Z" fill="white"/>
<path d="M8.46399 9.05342L9.25356 7.92305C10.168 8.42896 10.6401 8.74225 11.3894 8.80152C13.2945 8.96028 13.2035 7.53144 12.4923 7.33881C11.6286 7.09538 10.5871 7.20757 9.74042 6.76304C9.38845 6.59638 9.09887 6.32173 8.91383 5.97907C8.7288 5.63641 8.65797 5.24363 8.71165 4.85792C8.79421 4.0112 9.31494 3.29149 10.5342 3.01842C11.7535 2.74535 13.3517 3.01842 14.3445 3.76142L13.4342 4.93201C13.0082 4.69075 12.5567 4.49763 12.088 4.35624C11.0423 4.12762 10.5215 4.47901 10.4199 4.87485C10.4011 4.95792 10.3991 5.04394 10.4142 5.12777C10.4293 5.21161 10.4611 5.29156 10.5077 5.36285C10.5543 5.43415 10.6148 5.49534 10.6855 5.54279C10.7563 5.59023 10.8358 5.62296 10.9195 5.63902C11.4423 5.77026 12.3822 5.79778 13.0172 5.95442C14.0291 6.20209 14.5244 6.86888 14.6027 7.69443C14.7953 9.76043 12.8648 10.5182 11.0973 10.3129C10.0975 10.2123 9.16516 9.7626 8.46399 9.04284" fill="white"/>
<path d="M4.19226 7.17793L4.66854 5.04631H3.3159L2.83751 7.17793H4.19226ZM2.63218 1.88593H4.07795L3.65459 3.64922H4.96701L5.37978 1.88593H6.85096L6.4276 3.64922H7.46483V5.04843H6.12278L5.64438 7.17793H6.70278V8.57502H5.3311L4.98606 10.1139H3.53182L3.87897 8.57502H2.56444L2.2194 10.1139H0.767275L1.11443 8.57502H0.0560303V7.17793H1.4256L1.904 5.04631H0.845597V3.6471H2.2067L2.63218 1.88593Z" fill="white"/>
<path d="M20.4768 9.88527C19.746 10.0183 19.0015 10.0595 18.2605 10.008C16.9058 9.85987 16.6517 9.05337 16.6517 7.78328V4.56786H15.2631V3.13479H16.5671V1.2085H18.2605V3.13479H20.136V4.56786H18.2605V7.78328C18.2605 8.38234 18.6204 8.54533 19.3189 8.54533H20.0026L20.4768 9.88527Z" fill="white"/>
<path d="M29.3991 10.0568V3.14118H30.974V4.00907C31.5604 3.26396 32.1785 2.95067 32.9511 2.95067C33.6434 2.93457 34.3212 3.14985 34.8774 3.56243L34.0307 5.06747C33.6623 4.72667 32.8453 4.28002 32.115 4.62506C31.6577 4.83674 31.0947 5.21777 31.0947 6.56405V10.0568H29.3991Z" fill="white"/>
<path d="M40.7472 9.88527C39.3523 10.188 38.1944 10.2684 37.5297 9.50424C37.1188 9.02691 36.902 8.41277 36.9222 7.78328V4.56786H35.5336V3.13479H36.8396V1.2085H38.5331V3.13479H40.4086V4.56786H38.5331L38.5542 7.78328C38.5542 8.38234 38.9162 8.54533 39.6126 8.54533H40.3556L40.7472 9.88527Z" fill="white"/>
<path d="M53.4502 4.54673C53.853 4.54673 54.2468 4.66621 54.5817 4.89007C54.9166 5.11392 55.1776 5.43208 55.3317 5.8043C55.4858 6.17652 55.526 6.58607 55.4472 6.98115C55.3685 7.37622 55.1743 7.73906 54.8893 8.02377C54.6043 8.30847 54.2413 8.50225 53.8461 8.58059C53.451 8.65892 53.0415 8.61829 52.6694 8.46384C52.2973 8.30939 51.9795 8.04805 51.756 7.71289C51.5325 7.37774 51.4134 6.98382 51.4138 6.58098C51.4144 6.04127 51.6291 5.52385 52.011 5.14242C52.3928 4.76098 52.9104 4.54673 53.4502 4.54673ZM49.5891 12.961H51.2254V8.99625C51.7885 10.0546 52.9696 10.3743 54.1572 10.1965C56.1194 9.90436 57.1736 8.16434 57.1207 6.43068C57.0796 5.48921 56.6991 4.59443 56.0496 3.91169C55.7166 3.59123 55.322 3.34175 54.8897 3.17837C54.4575 3.01499 53.9965 2.94112 53.5348 2.96124C51.9726 3.00146 51.4561 3.91592 51.2275 4.17205V3.16869H49.5891V12.961Z" fill="white"/>
<path d="M47.0638 10.0249V9.01311C46.7934 9.40014 46.4276 9.71072 46.0018 9.91471C45.576 10.1187 45.1048 10.2092 44.6337 10.1774C43.8727 10.1465 43.1539 9.81923 42.631 9.26546C42.1081 8.71169 41.8225 7.97536 41.8353 7.21383V3.12628H43.5055V6.70579C43.5055 8.05843 44.4199 8.68501 45.3047 8.63632C46.1366 8.58975 46.9453 7.95894 46.9453 6.48141V3.12628H48.6133V10.0249H47.0638Z" fill="white"/>
<path d="M62.3492 3.11149V4.13179C62.6198 3.74443 62.9859 3.43366 63.4121 3.22965C63.8383 3.02565 64.31 2.93535 64.7814 2.96755C65.5426 2.99786 66.2617 3.32497 66.7847 3.87886C67.3077 4.43275 67.5931 5.16938 67.5798 5.93107V10.008H65.9097V6.42852C65.9097 5.078 64.9952 4.45143 64.1104 4.498C63.2785 4.54457 62.4699 5.17537 62.4699 6.65502V10.008H60.8082V3.11149H62.3492Z" fill="white"/>
<path d="M58.9031 0.1225C59.1054 0.122081 59.3033 0.181688 59.4717 0.293778C59.6401 0.405867 59.7715 0.5654 59.8492 0.752185C59.9269 0.93897 59.9475 1.14461 59.9083 1.34308C59.869 1.54155 59.7718 1.72392 59.6289 1.86712C59.486 2.01032 59.3039 2.10791 59.1055 2.14753C58.9071 2.18715 58.7014 2.16703 58.5145 2.08971C58.3275 2.01238 58.1677 1.88134 58.0553 1.71316C57.9428 1.54498 57.8828 1.34722 57.8828 1.14492C57.8834 0.874291 57.991 0.614879 58.1821 0.423321C58.3733 0.231762 58.6325 0.123617 58.9031 0.1225Z" fill="white"/>
<path d="M59.7921 3.09253H58.0182V10.0081H59.7921V3.09253Z" fill="white"/>
<path d="M72.1437 4.54032C72.5498 4.54032 72.9468 4.66075 73.2844 4.88637C73.6221 5.11199 73.8853 5.43267 74.0407 5.80786C74.1961 6.18305 74.2367 6.5959 74.1575 6.9942C74.0783 7.3925 73.8827 7.75836 73.5956 8.04552C73.3084 8.33268 72.9426 8.52824 72.5443 8.60747C72.1459 8.68669 71.7331 8.64603 71.3579 8.49062C70.9827 8.33521 70.662 8.07204 70.4364 7.73437C70.2108 7.39671 70.0904 6.99973 70.0904 6.59362C70.0904 6.04905 70.3067 5.52679 70.6918 5.14172C71.0768 4.75665 71.5991 4.54032 72.1437 4.54032ZM75.9857 0.175476H74.3557V4.14448C73.7927 3.08608 72.567 2.81301 71.4261 2.94214C69.4426 3.17287 68.3842 4.98697 68.4731 6.76297C68.5078 7.68784 68.885 8.5668 69.5315 9.22904C69.8647 9.54937 70.2593 9.79891 70.6915 9.96262C71.1237 10.1263 71.5845 10.2008 72.0463 10.1816C73.6085 10.1414 74.125 9.22692 74.3536 8.96867V9.96569H75.992L75.9857 0.175476Z" fill="white"/>
<path fill-rule="evenodd" clip-rule="evenodd" d="M78.2696 0.1225C78.4719 0.122081 78.6698 0.181688 78.8382 0.293778C79.0066 0.405867 79.138 0.5654 79.2157 0.752185C79.2934 0.93897 79.314 1.14461 79.2748 1.34308C79.2356 1.54155 79.1383 1.72392 78.9954 1.86712C78.8525 2.01032 78.6704 2.10791 78.472 2.14753C78.2736 2.18715 78.0679 2.16703 77.881 2.08971C77.694 2.01238 77.5342 1.88134 77.4218 1.71316C77.3093 1.54498 77.2493 1.34722 77.2493 1.14492C77.2493 0.87412 77.3568 0.614385 77.548 0.422706C77.7393 0.231026 77.9988 0.12306 78.2696 0.1225Z" fill="white"/>
<path d="M79.1566 3.09253H77.3828V10.0081H79.1566V3.09253Z" fill="white"/>
<path fill-rule="evenodd" clip-rule="evenodd" d="M64.4406 17.6667H70.9815V11.1068H79.1651V12.851H72.7258V19.4088H64.4406V17.6667Z" fill="white"/>
</svg>
