<?xml version="1.0" encoding="utf-8"?>
<!-- Generator: Adobe Illustrator 27.3.1, SVG Export Plug-In . SVG Version: 6.00 Build 0)  -->
<svg version="1.1" id="Layer_1" xmlns="http://www.w3.org/2000/svg" xmlns:xlink="http://www.w3.org/1999/xlink" x="0px" y="0px"
	 viewBox="0 0 999.5 909.5" style="enable-background:new 0 0 999.5 909.5;" xml:space="preserve">
<style type="text/css">
	.st0{fill:#0047AB;}
	.st1{fill:#FFFFFF;}
</style>
<path id="Path_2476" class="st0" d="M21.4,535.3l172.4,296c28.3,48.6,80.4,78.4,136.7,78.2l342.5-1.3
	c56.3-0.2,108.2-30.4,136.1-79.3l170.2-297.2c27.9-48.8,27.7-108.8-0.6-157.4l-172.3-296C778,29.6,725.9-0.2,669.6,0L327,1.3
	c-56.2,0.2-108.1,30.4-136.1,79.2L20.8,377.8C-7.1,426.6-6.9,486.7,21.4,535.3L21.4,535.3z"/>
<path id="Path_2477" class="st1" d="M493.2,602.7c-52.8,12-98.3-13.6-116.6-64.5c-6.8,1.2-13.9,2.2-20.8,3.7
	c-18.6,3.9-37.2,8-55.9,11.9c-8.8,2.3-18.2-0.5-24.3-7.2c-6.4-6.2-8.8-15.5-6.1-24c9.3-31.6,17.8-63.4,28.6-94.4
	c9.2-26.6,29.3-42.9,57.1-48.7c13.7-2.8,27.5-5,41.3-7.2c3.8-0.4,7.1-2.8,8.6-6.3C440,296,495.8,247.3,564.6,212.5
	c24-12.2,48.7-22.4,75.8-25.9c6-1.7,12.2,1.8,14,7.7c9.9,22.2,14.1,45.5,16.7,69.4c6.8,62.7,0,123.5-24.1,181.9
	c-6.6,14.6-13.9,28.9-22,42.8c-2.2,3.3-2.6,7.5-1,11.1c5,11.9,9.4,24,14.2,36c12,30.7,7.1,58.4-14.3,83.2
	c-19.7,22.9-39.2,45.8-59,68.6c-13.4,15.4-36.1,11.1-43.3-8.2c-8.6-22.8-16.9-45.6-25.4-68.4C495.3,608.1,494.3,605.5,493.2,602.7
	L493.2,602.7z"/>
<path id="Path_2478" class="st1" d="M345.9,653.9c-7.1,2.2-13.1,4.2-19.1,6c-4.9,1.9-10.6,0.2-13.6-4.1c-3.5-4.2-3.9-10.2-1-14.8
	c9.1-16.2,18-32.5,27.3-48.6c3.3-6.1,10.9-8.4,17-5.1c1.9,1,3.5,2.5,4.6,4.3c21,31.4,55.7,50.9,93.4,52.5
	c6.9-0.1,12.6,5.4,12.7,12.3c0,2.4-0.6,4.8-1.9,6.9c-8.9,16.6-18.2,32.9-27.4,49.2c-2.5,4.7-7.7,7.2-12.9,6.1
	c-5.1-0.4-9.2-4.1-10.1-9.1c-1.4-6.2-2.6-12.4-4.1-19.9c-4.2,2.4-6.3,3.6-8.3,4.9c-12.5,8.3-25,16.6-37.3,25.1
	c-4.7,3.3-9.5,4.9-14.8,2.1c-5-2.7-7.7-8.3-6.8-13.9C344.4,690.5,345,673.2,345.9,653.9L345.9,653.9z"/>
</svg>
