<svg width="512" height="321" viewBox="0 0 512 321" fill="none" xmlns="http://www.w3.org/2000/svg">
<g clip-path="url(#clip0_197_154)">
<path d="M188.965 13.1077H175.274V79.0965H188.965V13.1077Z" fill="#EAEDF3"/>
<path d="M172.277 25.2755H158.586V79.0834H172.277V25.2755Z" fill="#437CD1"/>
<path d="M155.589 18.0349H141.898V79.0834H155.589V18.0349Z" fill="#869EC6"/>
<path d="M138.9 45.429H125.21V79.0834H138.9V45.429Z" fill="#B9CCEC"/>
<path d="M122.225 61.1649H108.534V79.0834H122.225V61.1649Z" fill="#004EC1"/>
<path d="M196.452 82.586H105.485V10.9119" stroke="#A8B0D8" stroke-miterlimit="10"/>
<path d="M83.045 96.1981H12.13V181.857H83.045V96.1981Z" fill="#EAEDF3"/>
<path d="M22.0513 107.203H43.4645" stroke="#004EC1" stroke-miterlimit="10"/>
<path d="M22.0513 113.306H73.1368" stroke="#004EC1" stroke-miterlimit="10"/>
<path d="M22.0513 119.397H73.1368" stroke="#004EC1" stroke-miterlimit="10"/>
<path d="M22.0513 125.5H73.1368" stroke="#004EC1" stroke-miterlimit="10"/>
<path d="M22.0513 131.591H73.1368" stroke="#004EC1" stroke-miterlimit="10"/>
<path d="M22.0513 137.694H73.1368" stroke="#004EC1" stroke-miterlimit="10"/>
<path d="M22.0513 143.785H73.1368" stroke="#004EC1" stroke-miterlimit="10"/>
<path d="M22.0513 149.875H73.1368" stroke="#004EC1" stroke-miterlimit="10"/>
<path d="M22.0513 155.979H73.1368" stroke="#004EC1" stroke-miterlimit="10"/>
<path d="M22.0513 162.069H73.1368" stroke="#004EC1" stroke-miterlimit="10"/>
<path d="M22.0513 168.173H43.4645" stroke="#004EC1" stroke-miterlimit="10"/>
<path d="M66.8934 92.0812V113.136C66.8934 115.763 64.76 117.907 62.116 117.907C59.4852 117.907 57.3386 115.776 57.3386 113.136V91.1794C57.3386 87.167 60.5977 83.8995 64.6291 83.8995C68.6473 83.8995 71.9195 87.1539 71.9195 91.1794V96.1981" stroke="#437CD1" stroke-miterlimit="10"/>
<path d="M163.455 153.306L191.347 156.077C193.14 137.962 184.855 119.521 168.363 109.183L153.455 132.865C160.641 137.374 164.24 145.412 163.455 153.306Z" fill="#EAEDF3"/>
<path d="M160.261 162.664C153.9 172.767 140.537 175.812 130.419 169.46C128.011 167.957 126.021 166.036 124.45 163.879L101.807 180.36C105.419 185.314 110 189.679 115.511 193.142C138.73 207.715 169.384 200.736 183.978 177.55C188.206 170.832 190.614 163.487 191.347 156.077L163.455 153.306C163.141 156.534 162.107 159.736 160.261 162.664Z" fill="#437CD1"/>
<path d="M101.807 180.36L124.45 163.879C122.526 161.239 121.257 158.22 120.668 155.07L93.1028 160.128C94.4378 167.369 97.3828 174.309 101.807 180.36Z" fill="#B9CCEC"/>
<path d="M123.626 139.661C128.364 132.12 137.003 128.526 145.288 129.807L149.607 102.164C130.602 99.2106 110.799 107.484 99.909 124.775C93.0112 135.727 90.9432 148.34 93.1159 160.128L120.681 155.07C119.738 149.934 120.615 144.445 123.626 139.661Z" fill="#869EC6"/>
<path d="M145.275 129.82C148.102 130.264 150.877 131.257 153.455 132.878L168.363 109.196C162.46 105.484 156.073 103.184 149.594 102.177L145.275 129.82Z" fill="#004EC1"/>
<rect x="284.612" y="29.6512" width="200.527" height="225.849" rx="10" fill="url(#paint0_linear_197_154)"/>
<g filter="url(#filter0_d_197_154)">
<path d="M324.211 60.0016H187.394C183.527 60.0016 180.392 63.1321 180.392 66.9939V182.922C180.392 186.784 183.527 189.914 187.394 189.914H324.211C328.079 189.914 331.214 186.784 331.214 182.922V66.9939C331.214 63.1321 328.079 60.0016 324.211 60.0016Z" fill="white"/>
</g>
<path d="M202.172 152.757L216.347 142.576L244.684 111.156L273.021 128.67L301.358 90.1664V152.757H202.172Z" fill="#004EC1"/>
<path d="M263.388 71.4899H195.522V75.267H263.388V71.4899Z" fill="#B2B2B2"/>
<path d="M206.111 81.1353H195.522V82.5076H206.111V81.1353Z" fill="#B2B2B2"/>
<path d="M223.192 81.1353H207.158V82.5076H223.192V81.1353Z" fill="#B2B2B2"/>
<path d="M235.221 81.1353H224.252V82.5076H235.221V81.1353Z" fill="#B2B2B2"/>
<path d="M247.315 81.1353H236.268V82.5076H247.315V81.1353Z" fill="#B2B2B2"/>
<path d="M202.25 84.651H195.522V86.0233H202.25V84.651Z" fill="#B2B2B2"/>
<path d="M206.648 84.651H204.292V86.0233H206.648V84.651Z" fill="#B2B2B2"/>
<path d="M217.577 84.651H208.376V86.0233H217.577V84.651Z" fill="#B2B2B2"/>
<path d="M227.276 85.7619V84.651H219.292V86.0233H227.354C227.315 85.958 227.289 85.8665 227.289 85.7619H227.276Z" fill="#B2B2B2"/>
<path d="M247.315 84.651H240.783V86.0233H247.315V84.651Z" fill="#B2B2B2"/>
<path d="M234.88 84.651H229.213V86.0233H234.88V84.651Z" fill="#B2B2B2"/>
<path d="M238.728 84.651H236.922V86.0233H238.728V84.651Z" fill="#B2B2B2"/>
<path d="M219.03 142.576C219.03 144.053 217.826 145.255 216.347 145.255C214.868 145.255 213.664 144.053 213.664 142.576C213.664 141.099 214.868 139.897 216.347 139.897C217.826 139.897 219.03 141.099 219.03 142.576Z" fill="#1E1E1E"/>
<path d="M217.381 142.576C217.381 143.151 216.91 143.608 216.347 143.608C215.784 143.608 215.313 143.138 215.313 142.576C215.313 142.014 215.784 141.543 216.347 141.543C216.91 141.543 217.381 142.014 217.381 142.576Z" fill="white"/>
<path d="M247.367 111.156C247.367 112.633 246.163 113.836 244.684 113.836C243.205 113.836 242.001 112.633 242.001 111.156C242.001 109.679 243.205 108.477 244.684 108.477C246.163 108.477 247.367 109.679 247.367 111.156Z" fill="#1E1E1E"/>
<path d="M244.684 112.189C245.255 112.189 245.718 111.727 245.718 111.156C245.718 110.586 245.255 110.124 244.684 110.124C244.113 110.124 243.65 110.586 243.65 111.156C243.65 111.727 244.113 112.189 244.684 112.189Z" fill="white"/>
<path d="M275.704 128.67C275.704 130.147 274.5 131.349 273.021 131.349C271.542 131.349 270.338 130.147 270.338 128.67C270.338 127.193 271.542 125.99 273.021 125.99C274.5 125.99 275.704 127.193 275.704 128.67Z" fill="#1E1E1E"/>
<path d="M274.055 128.67C274.055 129.245 273.584 129.702 273.021 129.702C272.458 129.702 271.987 129.232 271.987 128.67C271.987 128.108 272.458 127.637 273.021 127.637C273.584 127.637 274.055 128.108 274.055 128.67Z" fill="white"/>
<path d="M304.042 90.1664C304.042 91.6433 302.837 92.8457 301.358 92.8457C299.879 92.8457 298.675 91.6433 298.675 90.1664C298.675 88.6895 299.879 87.4871 301.358 87.4871C302.837 87.4871 304.042 88.6895 304.042 90.1664Z" fill="#1E1E1E"/>
<path d="M302.392 90.1664C302.392 90.7415 301.921 91.1989 301.358 91.1989C300.796 91.1989 300.324 90.7284 300.324 90.1664C300.324 89.6044 300.796 89.1339 301.358 89.1339C301.921 89.1339 302.392 89.6044 302.392 90.1664Z" fill="white"/>
<path d="M314.931 160.547H287.17V166.624H314.931V160.547Z" fill="#B2B2B2"/>
<path d="M314.054 165.748V161.422H288.047V165.748H314.054Z" fill="#CDD9E5"/>
<path d="M410.878 135.138C410.878 135.138 408.195 144.496 406.86 147.176C405.524 149.855 406.192 149.855 409.543 147.842C409.543 147.842 408.208 155.867 410.21 157.2C412.213 158.533 419.582 157.2 416.899 165.225H430.642L432.304 137.151L410.878 135.152V135.138Z" fill="white"/>
<path d="M424.556 150.169C425.472 150.626 426.637 150.482 427.474 149.907C428.325 149.332 428.849 148.352 428.993 147.346C429.281 145.333 427.645 143.085 425.616 143.242C424.15 143.359 423.129 144.549 422.618 145.843C422.461 146.248 422.474 147.568 422.213 147.816C422.003 148.038 420.459 148.091 420.472 148.077C420.825 146.026 420.59 145.058 420.943 143.02C420.014 143.163 419.019 142.693 418.548 141.882C418.077 141.072 418.836 138.641 419.425 137.909C417.016 137.203 414.791 136.459 412.37 135.753C411.624 135.544 410.773 135.204 410.59 134.459C410.433 133.832 410.852 133.204 411.323 132.773C413.613 130.708 417.173 131.296 420.171 132.015C423.404 132.786 426.65 133.557 429.883 134.328C431.427 134.694 433.103 135.152 433.993 136.472C434.935 137.87 434.634 139.739 434.267 141.399C433.076 146.875 432.291 151.881 430.943 157.893C430.302 155.083 427.069 151.567 424.529 150.195L424.556 150.169Z" fill="#1E1E1E"/>
<path d="M432.291 163.892H415.564L414.896 168.571H432.291V163.892Z" fill="#1E1E1E"/>
<path d="M404.176 236.755L414.896 350.383H430.825L438.508 236.755L414.896 225.306L404.176 236.755Z" fill="#1E1E1E"/>
<path d="M368.902 187.94L366.886 185.548L366.219 177.85H364.439L363.693 181.745L356.939 173.315L355.002 174.243L353.732 173.224L351.494 174.674L352.764 176.203L351.206 177.484L363.549 192.397L365.97 189.521L368.902 187.94Z" fill="white"/>
<path d="M394.438 172.165L385.931 205.048L368.784 183.588L359.818 191.064L382.711 220.758C386.533 224.836 393.26 223.882 395.786 218.889L407.933 194.867L394.412 172.178L394.438 172.165Z" fill="#1E1E1E"/>
<path d="M357.292 175.249L359.086 173.89L365.447 182.817L363.549 183.705L357.292 175.249Z" fill="white"/>
<path d="M460.955 210.381L455.733 178.778C454.738 172.766 450.236 167.93 444.293 166.532C444.254 166.532 444.228 166.519 444.228 166.519L402.723 165.186C402.723 165.186 396.218 164.558 394.438 172.165C393.81 174.844 401.559 253.184 401.559 253.184H440.681L441.741 224.6L450.746 223.385C457.775 222.431 462.448 216.484 460.942 210.394L460.955 210.381Z" fill="#1E1E1E"/>
<path d="M258.892 207.491H152.048V280.197H258.892V207.491Z" fill="#EAEDF3"/>
<path d="M247.177 296.116L239.926 291.084L232.688 296.116V269.925H247.177V296.116Z" fill="#004EC1"/>
<path d="M239.926 279.374C245.789 279.374 250.541 274.628 250.541 268.774C250.541 262.921 245.789 258.175 239.926 258.175C234.064 258.175 229.311 262.921 229.311 268.774C229.311 274.628 234.064 279.374 239.926 279.374Z" fill="#004EC1"/>
<path d="M250.418 268.917C251.357 263.139 247.427 257.694 241.641 256.756C235.854 255.818 230.401 259.742 229.462 265.52C228.523 271.299 232.452 276.743 238.239 277.681C244.026 278.619 249.478 274.695 250.418 268.917Z" fill="white" stroke="#004EC1" stroke-width="0.5" stroke-miterlimit="10"/>
<path d="M247.439 267.206C247.439 271.349 244.075 274.695 239.939 274.695C235.803 274.695 232.439 271.336 232.439 267.206C232.439 263.076 235.803 259.717 239.939 259.717C244.075 259.717 247.439 263.076 247.439 267.206Z" stroke="#537CB8" stroke-width="0.45" stroke-miterlimit="10"/>
<path d="M160.634 232.545H247.439" stroke="#004EC1" stroke-miterlimit="10"/>
<path d="M184.115 225.815H223.958" stroke="#004EC1" stroke-miterlimit="10"/>
<path d="M160.634 239.276H247.439" stroke="#004EC1" stroke-miterlimit="10"/>
<path d="M160.634 246.007H247.439" stroke="#004EC1" stroke-miterlimit="10"/>
<path d="M160.634 252.738H247.439" stroke="#004EC1" stroke-miterlimit="10"/>
<path d="M185.411 259.469H222.662" stroke="#004EC1" stroke-miterlimit="10"/>
</g>
<defs>
<filter id="filter0_d_197_154" x="169.052" y="48.6616" width="173.502" height="152.593" filterUnits="userSpaceOnUse" color-interpolation-filters="sRGB">
<feFlood flood-opacity="0" result="BackgroundImageFix"/>
<feColorMatrix in="SourceAlpha" type="matrix" values="0 0 0 0 0 0 0 0 0 0 0 0 0 0 0 0 0 0 127 0" result="hardAlpha"/>
<feOffset/>
<feGaussianBlur stdDeviation="5.67"/>
<feColorMatrix type="matrix" values="0 0 0 0 0 0 0 0 0 0 0 0 0 0 0 0 0 0 0.2 0"/>
<feBlend mode="normal" in2="BackgroundImageFix" result="effect1_dropShadow_197_154"/>
<feBlend mode="normal" in="SourceGraphic" in2="effect1_dropShadow_197_154" result="shape"/>
</filter>
<linearGradient id="paint0_linear_197_154" x1="269.479" y1="13.3276" x2="473.495" y2="264.942" gradientUnits="userSpaceOnUse">
<stop offset="0.104167" stop-color="white" stop-opacity="0"/>
<stop offset="1" stop-color="#004EC1"/>
</linearGradient>
<clipPath id="clip0_197_154">
<rect width="511.492" height="321" fill="white"/>
</clipPath>
</defs>
</svg>
