<svg width="48" height="44" viewBox="0 0 48 44" fill="none" xmlns="http://www.w3.org/2000/svg">
<g clip-path="url(#clip0_197_85)">
<path d="M46.4843 18.1302L38.2957 4.06537C36.9551 1.76405 34.475 0.356445 31.805 0.356445L15.5394 0.412303C12.8694 0.412303 10.4005 1.85342 9.07114 4.17708L0.983006 18.2978C-0.346397 20.6215 -0.335225 23.4702 1.01652 25.7715L9.20519 39.8363C10.5458 42.1488 13.0258 43.5676 15.6958 43.5564L31.9726 43.4894C34.6426 43.4894 37.1115 42.0483 38.4409 39.7246L46.5178 25.6039C47.8472 23.2803 47.8361 20.4315 46.4955 18.119L46.4843 18.1302Z" fill="#194CA1"/>
<path d="M23.8952 34.1106C23.3254 34.1106 22.8562 33.9319 22.4987 33.5744C22.1413 33.2169 21.9513 32.7812 21.9513 32.245V16.9066L22.3759 17.5768L20.1527 19.2191C19.8735 19.4425 19.516 19.5542 19.0915 19.5542C18.5999 19.5542 18.1754 19.3755 17.8179 19.0068C17.4604 18.6381 17.2705 18.2025 17.2705 17.6997C17.2705 17.0518 17.5833 16.5267 18.2089 16.1134L22.5881 13.1976C22.7892 13.0524 23.0126 12.9519 23.2696 12.896C23.5153 12.829 23.7611 12.8066 23.9845 12.8066C24.5766 12.8066 25.0458 12.9854 25.381 13.3317C25.7273 13.6892 25.8949 14.1249 25.8949 14.6611V32.245C25.8949 32.77 25.705 33.2169 25.3251 33.5744C24.9565 33.9319 24.4649 34.1106 23.884 34.1106H23.8952Z" fill="white"/>
</g>
<defs>
<clipPath id="clip0_197_85">
<rect width="47.501" height="43.2" fill="white" transform="translate(0 0.356445)"/>
</clipPath>
</defs>
</svg>
