<svg width="48" height="44" viewBox="0 0 48 44" fill="none" xmlns="http://www.w3.org/2000/svg">
<path d="M46.4788 18.0227L38.2901 3.95794C36.9495 1.64546 34.4695 0.226687 31.7995 0.237858L15.5339 0.293719C12.8639 0.293719 10.3951 1.73483 9.06565 4.05848L0.988741 18.1791C-0.340658 20.5028 -0.329488 23.3515 1.02225 25.6528L9.21089 39.7177C10.5515 42.0301 13.0315 43.4489 15.7015 43.4377L31.9782 43.3707C34.6482 43.3707 37.1171 41.9296 38.4465 39.6059L46.5234 25.4853C47.8528 23.1616 47.8417 20.3129 46.5011 18.0004L46.4788 18.0227Z" fill="#0047AB"/>
<path d="M29.0179 29.306C29.4982 29.306 29.9116 29.4624 30.2356 29.7975C30.5595 30.1215 30.7271 30.5237 30.7271 31.0152C30.7271 31.5067 30.5707 31.8754 30.2356 32.1882C29.9116 32.501 29.5094 32.6574 29.0179 32.6574H18.6731C18.1481 32.6574 17.7236 32.4898 17.4219 32.1658C17.1203 31.8419 16.9639 31.4285 16.9639 30.9147C16.9639 30.4008 17.1426 29.9651 17.5113 29.5741L24.1471 22.4802C24.8956 21.6647 25.4877 20.838 25.9234 19.989C26.3591 19.14 26.5825 18.4027 26.5825 17.7659C26.5825 16.7493 26.292 15.9338 25.7 15.3194C25.1191 14.7049 24.337 14.3921 23.354 14.3921C22.9741 14.3921 22.572 14.4815 22.1698 14.6714C21.7676 14.8502 21.3766 15.1071 20.9968 15.4311C20.617 15.755 20.2707 16.1349 19.9467 16.5594C19.7009 16.8834 19.4552 17.0844 19.2206 17.1738C18.9748 17.252 18.7513 17.2967 18.5503 17.2967C18.1034 17.2967 17.6901 17.1291 17.3214 16.794C16.9416 16.4588 16.7516 16.0678 16.7516 15.621C16.7516 15.2747 16.8634 14.9395 17.098 14.6156C17.3326 14.2916 17.623 13.9564 17.9693 13.6101C18.472 13.1074 19.0418 12.6606 19.6674 12.2696C20.293 11.8786 20.9409 11.5881 21.6112 11.3758C22.2815 11.1636 22.9294 11.0519 23.555 11.0519C24.9179 11.0519 26.091 11.32 27.0964 11.8562C28.1018 12.3925 28.8726 13.1521 29.42 14.1352C29.9674 15.1183 30.2467 16.2801 30.2467 17.6207C30.2467 18.7378 29.9116 19.9778 29.2525 21.3519C28.5934 22.726 27.6997 23.9996 26.5825 25.1949L22.4826 29.5741L22.1475 29.2948H28.9955L29.0179 29.306Z" fill="white"/>
</svg>
