<svg width="48" height="44" viewBox="0 0 48 44" fill="none" xmlns="http://www.w3.org/2000/svg">
<path d="M46.4788 17.8929L38.2902 3.82806C36.9496 1.52674 34.4695 0.119141 31.7995 0.119141L15.5339 0.174998C12.8639 0.174998 10.3951 1.61611 9.06569 3.93977L0.988759 18.0605C-0.340641 20.3841 -0.329505 23.2328 1.02224 25.5341L9.21092 39.599C10.5515 41.9115 13.0315 43.3302 15.7015 43.3191L31.9783 43.252C34.6483 43.252 37.1171 41.8109 38.4465 39.4873L46.5235 25.3666C47.8529 23.0429 47.8417 20.1942 46.5012 17.8817L46.4788 17.8929Z" fill="#0047AB"/>
<path d="M19.0639 27.8466C19.2427 27.8466 19.4437 27.8802 19.656 27.936C19.8682 28.003 20.114 28.1148 20.371 28.3047C20.7173 28.5728 21.1306 28.7962 21.5998 29.0085C22.0802 29.2096 22.6276 29.3101 23.2644 29.3101C23.9012 29.3101 24.482 29.1537 25.0406 28.8409C25.5992 28.5281 26.0572 28.0812 26.4258 27.5003C26.7945 26.9194 26.9733 26.2268 26.9733 25.4113C26.9733 24.5958 26.8169 24.0037 26.5041 23.4898C26.1913 22.9759 25.7779 22.5961 25.2529 22.328C24.7278 22.0598 24.1804 21.937 23.5995 21.937C23.1527 21.937 22.784 21.9816 22.4824 22.0598C22.1807 22.138 21.9014 22.2274 21.6333 22.3168C21.3652 22.4062 21.0413 22.4508 20.6726 22.4508C20.2034 22.4508 19.8459 22.2944 19.5889 21.9593C19.332 21.6242 19.2091 21.2555 19.2091 20.7975C19.2091 20.5182 19.265 20.2612 19.3767 20.0378C19.4884 19.8144 19.656 19.5686 19.8794 19.3117L25.2306 13.6254L26.0461 14.3292H18.5612C18.0696 14.3292 17.6675 14.1616 17.3435 13.8377C17.0196 13.5137 16.852 13.1115 16.852 12.62C16.852 12.1284 17.0196 11.7598 17.3435 11.447C17.6675 11.1342 18.0696 10.9778 18.5612 10.9778H27.867C28.4926 10.9778 28.9618 11.1454 29.2857 11.4917C29.5985 11.838 29.755 12.2737 29.755 12.7987C29.755 13.0668 29.688 13.3238 29.5427 13.5696C29.3975 13.8265 29.2299 14.0499 29.0288 14.251L23.6442 20.0266L22.8175 18.9877C23.0409 18.8872 23.3537 18.7978 23.7447 18.7084C24.1357 18.6302 24.4709 18.5855 24.739 18.5855C25.9344 18.5855 26.9733 18.8983 27.8558 19.5128C28.7384 20.1272 29.4198 20.9315 29.889 21.9146C30.3582 22.8977 30.604 23.959 30.604 25.0985C30.604 26.5954 30.2689 27.9025 29.5986 28.9973C28.9283 30.0921 27.9898 30.93 26.7722 31.522C25.5545 32.1141 24.1357 32.4046 22.5158 32.4046C21.7674 32.4046 21.0189 32.3152 20.2927 32.1253C19.5666 31.9354 18.9298 31.7008 18.4048 31.3992C17.9579 31.1534 17.6563 30.8853 17.5111 30.5948C17.3658 30.3044 17.2876 30.0251 17.2876 29.757C17.2876 29.2878 17.4552 28.8521 17.7904 28.4387C18.1255 28.0254 18.55 27.8131 19.0527 27.8131L19.0639 27.8466Z" fill="white"/>
</svg>
