<svg width="48" height="43" viewBox="0 0 48 43" fill="none" xmlns="http://www.w3.org/2000/svg">
<path d="M46.4788 17.6128L38.2901 3.68451C36.9495 1.39448 34.4695 -0.0105098 31.7995 0.000553135L15.5339 0.055867C12.864 0.055867 10.3951 1.48299 9.06571 3.78408L0.988724 17.7676C-0.340675 20.0687 -0.32947 22.8898 1.02227 25.1688L9.21087 39.097C10.5514 41.387 13.0316 42.792 15.7015 42.781L31.9782 42.7146C34.6482 42.7146 37.1171 41.2875 38.4465 38.9864L46.5234 25.0028C47.8528 22.7017 47.8416 19.8807 46.5011 17.5906L46.4788 17.6128Z" fill="#0047AB"/>
<path d="M26.8619 31.9505C26.3592 31.9505 25.9235 31.7735 25.5884 31.4306C25.242 31.0765 25.0744 30.6451 25.0744 30.1141V15.9535L25.7112 16.1084L19.8351 23.3104L19.6787 22.9232H30.4479C30.9394 22.9232 31.3416 23.078 31.6656 23.4099C31.9896 23.7418 32.1572 24.129 32.1572 24.6158C32.1572 25.1026 32.0008 25.4676 31.6656 25.7774C31.3305 26.0871 30.9394 26.242 30.4479 26.242H17.154C16.7294 26.242 16.3161 26.0761 15.9251 25.7331C15.5229 25.3902 15.333 24.9698 15.333 24.472C15.333 24.0294 15.4894 23.6312 15.791 23.2661L25.4096 11.6058C25.566 11.3845 25.7782 11.2075 26.0464 11.0747C26.3145 10.942 26.605 10.8867 26.9289 10.8867C27.454 10.8867 27.8897 11.0637 28.2248 11.4066C28.5599 11.7606 28.7275 12.1921 28.7275 12.7231V30.1362C28.7275 30.6561 28.5488 31.0987 28.1913 31.4527C27.8338 31.8067 27.3982 31.9726 26.8731 31.9726L26.8619 31.9505Z" fill="white"/>
</svg>
