<svg width="48" height="44" viewBox="0 0 48 44" fill="none" xmlns="http://www.w3.org/2000/svg">
<path d="M46.4788 17.7851L38.2901 3.72029C36.9495 1.40781 34.4695 -0.0109839 31.7995 0.000187559L15.5339 0.056031C12.864 0.056031 10.3951 1.49714 9.06568 3.82079L0.988741 17.9415C-0.340659 20.2651 -0.329487 23.1138 1.02225 25.4151L9.21091 39.48C10.5515 41.7925 13.0315 43.2112 15.7015 43.2L31.9783 43.1331C34.6482 43.1331 37.1171 41.692 38.4465 39.3683L46.5235 25.2476C47.8529 22.924 47.8417 20.0752 46.5011 17.7627L46.4788 17.7851Z" fill="#0047AB"/>
<path d="M22.237 32.3416C21.4885 32.3416 20.6841 32.2298 19.8351 31.9952C18.9861 31.7606 18.2823 31.4256 17.7349 30.9787C17.4668 30.7553 17.2657 30.4648 17.1093 30.1073C16.9529 29.7498 16.8859 29.4147 16.8859 29.0907C16.8859 28.7444 17.0311 28.4204 17.3327 28.1188C17.6232 27.8171 18.0477 27.6607 18.5951 27.6607C18.9637 27.6607 19.4218 27.8506 19.9692 28.2416C20.2931 28.4427 20.6506 28.6326 21.0305 28.789C21.4103 28.9566 21.8125 29.0349 22.2146 29.0349C23.1865 29.0349 24.0244 28.856 24.7394 28.4986C25.4432 28.1411 25.9906 27.6496 26.3816 27.024C26.7614 26.3984 26.9625 25.6499 26.9625 24.8009C26.9625 24.0301 26.7837 23.3709 26.4263 22.8235C26.0688 22.2761 25.5996 21.8516 25.0298 21.55C24.4489 21.2483 23.8233 21.0919 23.153 21.0919C22.5274 21.0919 21.98 21.1925 21.5108 21.3936C21.0416 21.5946 20.6171 21.807 20.2373 22.0192C19.8463 22.2315 19.4665 22.3321 19.0755 22.3321C18.4052 22.3321 17.9136 22.1868 17.5897 21.8852C17.2657 21.5947 17.0646 21.2372 16.9752 20.835C16.8859 20.4328 16.8747 20.0642 16.9082 19.7402L17.8578 12.3447C17.936 11.9202 18.1482 11.5628 18.4834 11.2947C18.8185 11.0154 19.2207 10.8813 19.6899 10.8813H28.4818C28.9733 10.8813 29.3755 11.0377 29.6995 11.3728C30.0235 11.708 30.191 12.0989 30.191 12.5905C30.191 13.082 30.0235 13.4507 29.6995 13.7635C29.3755 14.0763 28.9733 14.2328 28.4818 14.2328H20.6283L20.9634 13.9535L20.1367 20.1312L19.7346 18.9694C19.8575 18.7684 20.1256 18.5784 20.5277 18.3885C20.9299 18.1986 21.3991 18.0533 21.9242 17.9193C22.4492 17.7852 22.9631 17.7183 23.477 17.7183C24.8399 17.7183 26.0464 18.031 27.1301 18.6454C28.2025 19.2599 29.0515 20.1089 29.666 21.1702C30.2804 22.2315 30.5932 23.438 30.5932 24.7785C30.5932 26.2978 30.2469 27.6272 29.5543 28.7667C28.8616 29.9061 27.9009 30.7776 26.6497 31.4032C25.3985 32.0177 23.9239 32.3304 22.2258 32.3304L22.237 32.3416Z" fill="white"/>
</svg>
